<?xml version="1.0" encoding="UTF-8"?>
<svg id="Layer_1" data-name="Layer 1" xmlns="http://www.w3.org/2000/svg" version="1.1" viewBox="0 0 1080 1920">
  <defs>
    <style>
      .cls-1 {
        fill: #efdc4e;
      }

      .cls-1, .cls-2, .cls-3, .cls-4, .cls-5, .cls-6, .cls-7, .cls-8, .cls-9, .cls-10, .cls-11, .cls-12, .cls-13, .cls-14, .cls-15, .cls-16, .cls-17, .cls-18, .cls-19, .cls-20, .cls-21, .cls-22, .cls-23, .cls-24, .cls-25, .cls-26, .cls-27, .cls-28, .cls-29, .cls-30 {
        stroke-width: 0px;
      }

      .cls-2 {
        fill: #fae82d;
      }

      .cls-3 {
        fill: #029645;
      }

      .cls-4 {
        fill: #1ba64c;
      }

      .cls-5 {
        fill: #edd62a;
      }

      .cls-6 {
        fill: #eed835;
      }

      .cls-7 {
        fill: #ecd410;
      }

      .cls-8 {
        fill: #139946;
      }

      .cls-9 {
        fill: #09753b;
      }

      .cls-10 {
        fill: #118640;
      }

      .cls-11 {
        fill: #57af3b;
      }

      .cls-12 {
        fill: #f3e15b;
      }

      .cls-13 {
        fill: #126d3c;
      }

      .cls-14 {
        fill: #8cc236;
      }

      .cls-15 {
        fill: #7bbc36;
      }

      .cls-16 {
        fill: #1c9b44;
      }

      .cls-17 {
        fill: #0c7c3f;
      }

      .cls-18 {
        fill: #109045;
      }

      .cls-19 {
        fill: #fcfdfc;
      }

      .cls-20 {
        fill: #08924b;
      }

      .cls-21 {
        fill: #16a34a;
      }

      .cls-22 {
        fill: #46a83c;
      }

      .cls-23 {
        fill: #d88c2a;
      }

      .cls-24 {
        fill: #38a53d;
      }

      .cls-25 {
        fill: #cb962e;
      }

      .cls-26 {
        fill: #eeda3a;
      }

      .cls-27 {
        fill: #f5c547;
      }

      .cls-28 {
        fill: #63b339;
      }

      .cls-29 {
        fill: #fefefe;
      }

      .cls-30 {
        fill: #0f6533;
      }
    </style>
  </defs>
  <path class="cls-29" d="M66,1501V419c316,0,632,0,948,0v1082H66ZM383.97,1121.95c-1.33,1.01-2.65,2.03-3.98,3.04h0c-.61.24-1.35.33-1.8.75-10.23,9.49-20.72,18.74-30.52,28.66-5.19,5.25-9.18,11.68-13.71,17.58h.01c-.99,1.08-2.11,2.08-2.94,3.28-19.34,27.72-32.12,58.01-34.67,91.98-.69,9.18.44,18.5.73,27.75,0,.34.01.67.02,1.01.23,1.44.47,2.88.7,4.32.09,1.23.18,2.45.26,3.68.65,3,1.3,6,1.94,9,.32,1.34.64,2.67.96,4.01,3.26,9.02,6.09,18.23,9.89,27.02,3.82,8.82,8.51,17.26,12.98,25.79,5.3,10.11,10.77,20.13,16.17,30.19,9.81,15.26,22.48,27.59,37.99,37.01,6.63,3.44,13.25,6.87,19.88,10.31,8.07,3.35,16.15,6.7,24.22,10.05l17.94,4.67c1.02.24,2.04.48,3.06.73,6.68,1,13.36,2,20.04,3,5.63.35,11.26.7,16.89,1.05,1.37-.04,2.75-.07,4.12-.11,7-.25,14-.5,21-.74,1.28-.1,2.57-.2,3.85-.3,5.31-.77,10.63-1.54,15.94-2.31,1.07-.23,2.14-.46,3.21-.69,6.34-1.36,12.67-2.73,19.01-4.1.94-.26,1.89-.51,2.83-.77,4.69-1.62,9.38-3.24,14.07-4.85,1.01-.32,2.02-.64,3.03-.97,5.67-2.47,11.35-4.93,17.03-7.4.97-.47,1.94-.95,2.9-1.42,5.34-2.74,10.69-5.49,16.03-8.23,1.03-.51,2.06-1.02,3.09-1.53,5.06-3.32,10.11-6.64,15.17-9.96,1.42-1.04,2.84-2.08,4.26-3.11,4.48-3.83,8.96-7.67,13.45-11.5.7-.52,1.4-1.04,2.09-1.55,4.73-4.58,9.47-9.16,14.2-13.74l3.99-4.23c4.61-5.73,9.21-11.47,13.82-17.2.62-.69,1.25-1.37,1.87-2.06,3.76-5.93,7.53-11.86,11.29-17.79,3.21-6.75,6.42-13.5,9.62-20.25.41-.95.82-1.9,1.23-2.85,2.68-6.28,5.35-12.56,8.03-18.84,1.9-7.77,3.8-15.54,5.7-23.32.32-1.01.64-2.02.97-3.03.97-11.66,1.94-23.31,2.91-34.97-.48-9.84-.34-19.79-5.01-28.91-4.17-9.81-8.34-19.61-12.52-29.42-1.18-3.15-2.37-6.31-3.55-9.46-.64-1.71-1.3-3.41-1.9-5.14-6.65-18.9-16.38-36.1-30.14-50.62-27.45-28.96-61.55-45.13-100.87-50.73-.07-2.16-.19-4.32-.19-6.48-.01-50.75,0-101.5-.02-152.25,0-1.98-.23-3.96-.36-5.94,1.02-2.02,1.65-4.4,3.14-5.99,8.83-9.43,17.85-18.68,26.81-27.99,3.91-3.24,7.81-6.48,11.72-9.72,1.39-1.1,2.77-2.21,4.16-3.31,1.65-1.1,3.34-2.13,4.94-3.3,11.2-8.14,22.39-16.31,33.58-24.46,3.44-2.44,6.88-4.88,10.32-7.33,1.77-1.18,3.55-2.36,5.32-3.54,1.6-1.18,3.21-2.37,4.81-3.55,2.04-1.59,4.09-3.18,6.13-4.78,2.29-1.42,4.58-2.84,6.87-4.26,7.59-5.62,15.2-11.21,22.77-16.86,28.35-21.18,54.81-44.41,77.38-71.8,17.12-20.77,28.62-44.28,34.06-70.72,5.14-24.99,2.62-49.65-2.88-74.21-6.39-28.53-17.06-55.56-28.84-82.2-1.98-4.48-4.56-8.69-6.86-13.03-2.88-6.3-5.76-12.6-8.64-18.91,0,0-.05-.08-.05-.08-.92-2.06-1.84-4.11-2.76-6.17-.34-3.05-1.85-4.26-5.04-3.84-16.13,2.12-32.47,3.18-48.37,6.39-16.52,3.34-32.62,8.72-48.91,13.21-3.62,1.45-7.24,2.9-10.87,4.35-3,1.34-5.99,2.68-8.99,4.01-1.34.65-2.68,1.3-4.02,1.96-15.77,7.61-30.49,16.87-44.11,27.89-31.01,25.07-52.48,57.33-68.37,93.29-15.12,34.21-22.72,70.59-25.48,107.74-1.82,24.52-1.34,49.22-1.89,73.83-2.31-4.01-4.76-7.96-6.92-12.05-16.91-32.06-39.7-58.64-71.9-76.13-9.71-5.28-20.18-9.16-30.3-13.68-2.35-.77-4.7-1.55-7.05-2.32-16.9-5.28-34.34-6.54-51.9-6.97-14.73,1.02-29.47,1.99-44.18,3.18-1.26.1-3.12,1.49-3.46,2.64-1.13,3.79-1.68,7.75-2.46,11.64-.35,1.37-.71,2.73-1.06,4.1-.12.06-.33.13-.34.19,0,.24.06.47.1.71-.47,1.64-.95,3.29-1.42,4.93-.95,4.61-1.89,9.21-2.84,13.82-4.79,19.62-6.98,39.58-7.89,59.73-1.41,31.32,7.53,59.23,28.07,82.94,21.15,24.41,48.73,39.82,77.42,53.47,16.66,7.4,33.31,14.8,49.97,22.2,3.31,1.41,6.63,2.83,9.94,4.24.67.3,1.33.6,2,.9,4.69,2.22,9.39,4.44,14.08,6.66,2.34,1,4.69,2,7.03,3,4.95,2.47,9.91,4.93,14.86,7.4,3.71,2.24,7.42,4.48,11.13,6.72,5.97,4.73,11.9,9.51,17.94,14.16,2.63,2.02,3.37,4.47,3.36,7.74-.12,29.41-.07,58.83-.07,88.24-1.28.33-2.55.78-3.85.97-29.11,4.17-56.77,12.89-82.46,27.26-8.95,5-17.3,11.08-25.92,16.67h-.01c-1.35.99-2.71,1.97-4.06,2.95v-.02Z"/>
  <path class="cls-9" d="M659.85,473.59c16.29-4.49,32.39-9.87,48.91-13.21,15.9-3.22,32.24-4.28,48.37-6.39,3.19-.42,4.71.8,5.04,3.84.92,2.06,1.84,4.12,2.76,6.17,0,0,.05.08.05.08.05,4.27.1,8.53.15,12.8-1.01,1.97-2.02,3.93-3.11,6.05-3-1.56-6.14-3.3-7.11,1.44-.98,4.76-3.14,8.38-6.27,12.28-5.39,6.71-5.93,15.29-3.98,23.69,2.36,10.16-2.8,19.08-4.4,28.59-.46,2.74-2.32,5.55-1.91,8.07,1.09,6.88,2.77,13.03.2,20.55-2.98,8.69-2.34,18.59-3.61,27.92-.77,5.64-1.69,11.4-5.55,14.77-.52,3.43-.02,6.85-1.5,8.59-4.03,4.74-4.21,8.67,1.01,12.51,2.61,1.92,2.74,3.41.48,5.52-.82.77-1.77,1.71-2.03,2.73-2.12,8.53-6.05,16.05-12.74,22.62,2.28,1.76,4.16,3.21,5.95,4.59-2.56,2.19-5.14,4.12-7.38,6.39-3.13,3.17-6.05,6.56-8.99,9.91-1.44,1.64-2.72,3.42-4.07,5.13,0,.61.02,1.21.03,1.82-.67.34-1.33.67-2,1.01-.36,0-.72,0-1.09-.01-3.64.42-5.63-.79-6.3-4.79-.44-2.65-2.29-5.06-3.51-7.57.37-.55.69-1.14,1.13-1.63,22.12-24.9,31.3-55.07,33.32-87.32,1.24-19.82-.78-39.84-1.39-59.77-.04-1.36-.57-2.7-1.13-5.18-14.69,6.58-28.69,12.62-42.5,19.07-26.19,12.25-50.21,27.62-69.51,49.58-1-4.52-2.44-9-2.89-13.57-.4-4.12-.6-8.67.71-12.47,2.37-6.85,5.76-13.38,9.06-19.88,7.27-14.34,14.45-28.75,22.23-42.82,6.65-12.04,14.11-23.63,21.14-35.47,1.04-1.75,1.64-3.75,2.44-5.64Z"/>
  <path class="cls-20" d="M500.26,1074.12c0-29.41-.04-58.83.07-88.24.01-3.26-.73-5.71-3.36-7.74-6.04-4.64-11.97-9.43-17.94-14.16-.02-1.32.42-2.87-.12-3.93-4.23-8.22-4.31-8.22,2.38-14.85,10.46-10.35,16.68-22.7,17.8-37.48.39-1.44,1.09-2.87,1.12-4.32.19-8.47.22-16.94.3-25.41,1.64.98,3.44,1.76,4.89,2.97,6.42,5.36,12.73,10.85,19.52,16.67-.98-8.66-1.91-16.78-2.83-24.9,1.19.37,2.38.74,3.57,1.11.73,1.44,1.85,2.8,2.14,4.32,3.47,18.13,6.78,36.3,10.24,54.43.36,1.87,1.46,3.6,2.66,6.46,3.28-5.58,5.57-9.99,8.36-14.07,3.5-5.13,7.4-9.99,11.13-14.97.12,1.98.36,3.96.36,5.94.02,50.75.01,101.5.02,152.25,0,2.16.12,4.32.19,6.48-5.23-.25-10.47-.56-15.7-.75-9.25-.35-18.49-.83-27.74-.87-5.69-.02-11.38.67-17.07,1.05Z"/>
  <path class="cls-4" d="M496.13,786.67c.55-24.62.07-49.31,1.89-73.83,2.75-37.15,10.36-73.54,25.48-107.74,15.89-35.96,37.36-68.22,68.37-93.29,13.62-11.01,28.34-20.28,44.11-27.89-2.35,5.23-4.09,10.86-7.17,15.62-10.07,15.58-20.63,30.83-31,46.22-7.96,11.81-15.77,23.73-23.96,35.39-3.98,5.66-9.17,10.5-12.91,16.3-8.78,13.64-9.73,30.03-14.79,45-2.42,7.14-3.87,14.74-4.7,22.25-.73,6.53-2.48,13.31,1.64,19.74,3.91,6.11,7.28,12.59,10.61,19.06,2.98,5.8,1.95,12.35-2.7,16.91-2.46,2.4-5.34,4.5-8.32,6.22-11.09,6.37-21.1,13.94-27.74,25.09-5.78,9.71-8.24,19.98-2.15,30.54.97,1.69,3.42,2.53,5.19,3.76-4.64,6.37-9.28,12.74-13.91,19.12-.27-.77-.5-1.56-.82-2.31-2.35-5.39-4.73-10.76-7.1-16.14Z"/>
  <path class="cls-21" d="M496.13,786.67c2.37,5.38,4.74,10.75,7.1,16.14.33.75.55,1.54.82,2.31.19.96.3,1.94.57,2.88,3.66,12.58,7.51,25.11,10.96,37.75,2.44,8.92,4.36,17.99,6.52,26.99.92,8.12,1.85,16.24,2.83,24.9-6.79-5.82-13.1-11.3-19.52-16.67-1.45-1.21-3.25-1.99-4.89-2.97-.52-.82-.84-1.91-1.57-2.42-6.49-4.56-12.74-9.6-19.67-13.38-11.15-6.08-22.76-11.31-34.18-16.91-.76-1.31-1.51-2.61-2.31-3.99,10.94-1.12,15.46-5.75,14.02-16.27-1.26-9.23-4.01-18.29-9.8-26-.69-1.59-1.14-3.36-2.13-4.73-2.49-3.44-5.22-6.71-7.86-10.05-.39-4.04-2.76-7.36-1.18-12.25,3.15-9.74.3-18.8-5.39-27.66-11.22-17.47-23.48-34.04-37.12-49.66-2.54-2.91-4.23-6.57-6.31-9.88,10.12,4.52,20.59,8.4,30.3,13.68,32.2,17.49,54.99,44.08,71.9,76.13,2.16,4.09,4.61,8.04,6.92,12.05Z"/>
  <path class="cls-14" d="M773.62,482.99c2.3,4.34,4.88,8.55,6.86,13.03,11.78,26.63,22.44,53.67,28.84,82.2,5.5,24.56,8.03,49.22,2.88,74.21-5.44,26.44-16.94,49.94-34.06,70.72-22.58,27.39-49.03,50.63-77.38,71.8-7.57,5.65-15.18,11.24-22.77,16.86,2.92-7.33,4.65-15.49,9.01-21.83,8.99-13.07,19.99-24.77,29.05-37.8,8.68-12.48,16.23-25.79,23.77-39.03,5.06-8.9,8.42-18.83,13.99-27.36,8.59-13.14,19.82-23.62,35.7-27.83,5.22-1.38,9.75-4.23,10.77-9.88.99-5.47,1.3-11.13,1.24-16.7-.06-5.26-.78-10.55-1.59-15.77-.66-4.2-1.29-8.58-3.02-12.38-1.93-4.23-5.11-7.9-7.48-11.42-2.75-.4.27,4.87-3.71,2.83.83-9.89,1.66-19.79,2.49-29.69.11-.09.31-.2.3-.25-.06-.23-.19-.44-.3-.65,0-.69,0-1.38,0-2.07-.05-1.99-.09-3.98-.14-5.98-.59-5.62-.68-11.34-1.87-16.82-3.28-15.09-7.03-30.07-10.6-45.1-.67-3.7-1.33-7.39-2-11.09Z"/>
  <path class="cls-13" d="M277.96,692.98c.77-3.89,1.33-7.85,2.46-11.64.34-1.16,2.2-2.54,3.46-2.64,14.72-1.19,29.45-2.16,44.18-3.18-.86,1.08-1.5,2.53-2.62,3.2-9.52,5.73-9.86,6.53-6.39,17.04.73,2.19,1.66,4.35,2.11,6.6.74,3.68,2.41,7.77,1.48,11.07-1.82,6.46-2.19,12.48.38,18.66,2.24,13.9,3.77,27.97,6.89,41.67,4.53,19.85,13.15,37.93,27.5,52.81,4.11,4.27,8.5,8.27,12.76,12.39-4.87.78-4.34,4.98-5.26,8.27-.99-.12-1.98-.23-2.96-.35-.98-1.23-1.7-3-2.97-3.6-7.24-3.4-14.59-6.56-21.94-9.72-2.98-1.28-6.04-2.37-9.06-3.55-.86-1.09-1.49-2.55-2.6-3.22-9.83-5.97-18.18-13.66-25.38-22.49-4.54-5.56-8.16-11.87-12.27-17.78-1.11-1.6-2.51-3.01-3.78-4.5-.3-.67-.59-1.35-.89-2.02-.08-.32-.15-.64-.23-.96-.28-.68-.55-1.36-.83-2.04.31-.56,1.02-1.29.86-1.64-3.26-7.43-3.15-15.24-3.14-23.13,0-2.64-2.26-5.24-2.48-7.93-.45-5.68-.14-11.42-.34-17.13-.04-1.06-1.03-2.08-1.59-3.12.03-1.69.06-3.38.09-5.08.17-1.67.35-3.35.52-5.02l.46-8.97c3.51-1.72,4.5-9.38,1.56-11.99Z"/>
  <path class="cls-16" d="M644.55,835.25c-11.19,8.16-22.37,16.32-33.58,24.46-1.6,1.16-3.29,2.2-4.94,3.3-4.66.09-9.82-1.03-12.03,4.98-.34,0-.67,0-1.01.01-.64.15-1.3.26-1.93.47-12.15,4-17.39.8-19.11-11.68-.87-6.3-5.68-11.45-11.95-12.79,0-.34,0-.68-.01-1.01-3.29-5.38-4.9-11.18-3.97-17.47.92-6.2,1.77-12.43,3.23-18.51,1.47-6.1.61-11.41-3.36-16.23,10.55-8.27,20.89-16.82,31.7-24.72,10.14-7.41,20.77-14.14,31.19-21.18.19,1.49,1.02,3.29.46,4.42-3.84,7.83-3.61,16.18-3.15,24.46.41,7.45,1.23,14.93,7.55,20.38,4.73,4.09,9.29,8.4,13.74,12.8,4.84,4.77,8.39,9.77,5.89,17.49-1.02,3.14.76,7.19,1.26,10.83Z"/>
  <path class="cls-17" d="M323.03,732.08c-2.57-6.18-2.19-12.2-.38-18.66.93-3.3-.73-7.39-1.48-11.07-.46-2.25-1.39-4.4-2.11-6.6-3.47-10.51-3.13-11.31,6.39-17.04,1.11-.67,1.75-2.11,2.62-3.2,17.55.43,35,1.68,51.9,6.97,1.27,2.26,2.25,4.76,3.86,6.74,5.94,7.33,12.55,14.15,18.03,21.8,7.13,9.95,13.54,20.42,20.01,30.82,6.32,10.16,10.33,20.9,6.34,33.1-6.83-5.28-13.4-10.95-20.54-15.77-17.09-11.52-36.49-17.52-56.31-22.13-9.32-2.17-18.87-3.35-28.32-4.97Z"/>
  <path class="cls-21" d="M517.96,786c-1.77-1.23-4.21-2.07-5.19-3.76-6.1-10.56-3.63-20.83,2.15-30.54,6.64-11.15,16.65-18.72,27.74-25.09,2.99-1.71,5.87-3.81,8.32-6.22,4.66-4.56,5.69-11.11,2.7-16.91-3.33-6.46-6.7-12.94-10.61-19.06-4.12-6.44-2.37-13.21-1.64-19.74.84-7.51,2.29-15.11,4.7-22.25,5.06-14.97,6.01-31.36,14.79-45,3.73-5.8,8.93-10.64,12.91-16.3,8.18-11.66,15.99-23.58,23.96-35.39,10.37-15.38,20.93-30.64,31-46.22,3.08-4.76,4.82-10.39,7.17-15.62,1.34-.65,2.68-1.3,4.02-1.96-2.92,6.09-5.41,12.43-8.85,18.2-7.88,13.24-16.21,26.21-24.39,39.27-3.08,4.91-6.26,9.76-9.35,14.67-2.62,4.16-5.42,8.23-7.7,12.56-2.76,5.26-5.01,10.79-7.59,16.15-1.6,3.32-3.85,6.38-5.01,9.83-1.35,4.03-1.3,8.56-2.8,12.51-3.16,8.31-6.93,16.4-10.49,24.55-1.19,2.73-3.3,5.3-3.63,8.1-1.07,8.9-1.69,17.86-2.12,26.82-.31,6.48.31,13.01-.16,19.47-.57,8.03.59,15.54,4.48,22.6,3.05,5.53,6,11.33,12.74,13.09,3.47.91,4.09,2.76,3.59,5.82-.13.79.36,1.68.56,2.53-1.68,1.34-3.31,2.74-5.05,4-15.69,11.32-30.69,23.4-43.15,38.35-4.33,5.2-8.74,10.35-13.11,15.52Z"/>
  <path class="cls-22" d="M697.04,701.05c.36,0,.72,0,1.08.01,1.25.37,2.63,1.3,3.73,1.03,4.9-1.2,8.09,2.07,9.8,5.17,1.35,2.45,1.15,7.29-.46,9.59-11.11,15.79-22.86,31.13-34.22,46.74-6.88,9.46-15.42,17.97-18.82,29.52-.97,3.3-.77,7.72.71,10.75,1.89,3.88,2.38,7.31,1.64,11.39-.54,2.97-.24,6.08-.32,9.13-1.77,1.18-3.55,2.36-5.32,3.54-.09-2.72-.08-5.45-.3-8.16-.32-3.98.03-8.29-1.43-11.84-1.85-4.5-5.14-8.42-7.96-12.5-1.84-2.66-3.53-5.65-5.99-7.61-9.18-7.31-13.5-16.54-10.8-28.02,1.83-7.76,5.03-15.2,7.61-22.79.33-.01.66-.02.99-.01,2-1.33,4.01-2.66,6.01-3.98,1.36-.56,2.79-.99,4.05-1.71,5.81-3.3,11.61-6.62,17.34-10.05,3.27-1.96,6.41-4.15,9.6-6.24,7.68-4.66,15.36-9.31,23.04-13.97Z"/>
  <path class="cls-3" d="M560.21,910.03c-3.73,4.98-7.63,9.84-11.13,14.97-2.78,4.08-5.07,8.49-8.36,14.07-1.2-2.86-2.3-4.59-2.66-6.46-3.47-18.13-6.77-36.3-10.24-54.43-.29-1.52-1.41-2.88-2.14-4.32.76-10.99.88-22.08,2.45-32.96,2.16-14.87,7.72-28.53,18.06-39.85,6.75-.05,7.89,1.28,6.64,7.88-.43,2.26-1.14,4.47-1.56,6.74-1.91,10.41-3.21,20.86,3.97,29.95,4.5,5.7,9.31,11.07,11.33,18.33.55,1.98,2.1,3.71,3.35,5.45,5.11,7.11,12.69,6.88,20.24,6.66-8.96,9.31-17.98,18.56-26.81,27.99-1.48,1.59-2.11,3.97-3.14,5.99Z"/>
  <path class="cls-1" d="M298.07,1303.99c-.09-1.23-.18-2.45-.26-3.68.44-1.55,2.75-3.4-.7-4.32,0-.34-.01-.67-.02-1.01.64-1.75,1.78-3.48,1.82-5.25.2-7.82-.05-15.66.14-23.48.12-5.04.26-10.16,1.2-15.08,1.05-5.5,3.1-10.79,4.57-16.22.9-3.33,1.2-6.84,2.35-10.07,1.38-3.88,3.22-7.62,5.12-11.28,5.03-9.67,10.23-19.26,15.3-28.91,2.21-4.2,4.26-8.48,6.39-12.73,0,0-.01,0-.01,0,1.19-.41,2.8-.46,3.51-1.29,6.09-7.08,11.73-14.55,18.07-21.38,5.11-5.5,11.1-10.17,16.52-15.4,2.85-2.76,5.3-5.93,7.94-8.91,0,0,0,0,0,0,1.33-1.01,2.65-2.03,3.98-3.04,0,0-.01.02-.01.02,1.35-.98,2.71-1.96,4.06-2.94,0,0,.01-.01.01-.01,3.98-1.87,8.1-3.5,11.91-5.66,8.88-5.03,17.42-10.71,26.46-15.44,21.97-11.5,45.87-17.12,70.13-20.68,13.62-2,27.61-2.35,41.41-2.02,12.67.31,25.47,1.63,37.88,4.14,16.88,3.41,32.71,9.88,47.55,19.08,18.26,11.32,34.63,24.46,46.88,42.29,9.96,14.5,18.99,29.42,22.02,47.21.54,3.14,2.46,6.05,3.75,9.06,0,.66.01,1.31.02,1.97-.43,1.21-1.29,2.45-1.22,3.63.18,3.13,1.03,6.22,1.14,9.34.68,18.99-.93,37.58-6.55,55.99-5.24,17.16-12.47,33.23-22.03,48.21-12.37,19.39-27.39,36.43-45.08,51.38-19.59,16.55-41.06,29.67-64.37,39.97-17.32,7.66-35.42,12.99-54.06,16.3-7.81,1.38-15.69,2.67-23.59,3.1-26.72,1.44-53-1.13-78.51-9.77-20.84-7.06-39.9-17.4-56.14-32.2-19.76-18.03-34.85-39.32-41.83-65.66-.25-.94-1.85-1.52-2.82-2.26-.32-1.34-.64-2.67-.96-4.01,2.7-3.24,1.92-6.83-1.94-9ZM693.44,1222.07c-.47-6.11-.83-12.23-1.43-18.33-2-20.63-9.66-39.37-20.69-56.56-12.27-19.12-28.83-33.95-48.58-45.41-24.16-14.03-50.21-21.89-77.87-23.58-24.41-1.49-48.69.4-72.52,6.82-28.15,7.59-54.41,19.31-78.38,35.77-21.06,14.46-39.44,31.92-54.78,52.49-14.93,20.04-26.37,41.81-32.76,66.03-4.68,17.74-6.46,35.68-4.66,54.14,1.49,15.27,5.56,29.58,11.69,43.45,8.91,20.17,22.5,36.7,39.5,50.61,15.11,12.37,32.13,21.28,50.56,27.33,22.83,7.5,46.32,10.28,70.4,9.29,17.31-.71,34.18-3.47,50.81-7.97,19.49-5.28,37.98-12.96,55.66-22.78,18.54-10.3,35.51-22.7,50.82-37.25,15.45-14.69,28.46-31.37,38.88-50.12,14.53-26.15,23.2-53.78,23.35-83.96Z"/>
  <path class="cls-12" d="M300.97,1317c.97.75,2.57,1.32,2.82,2.26,6.98,26.34,22.06,47.64,41.83,65.66,16.23,14.81,35.29,25.14,56.14,32.2,25.52,8.64,51.79,11.21,78.51,9.77,7.9-.43,15.79-1.72,23.59-3.1,18.64-3.31,36.74-8.64,54.06-16.3,23.31-10.3,44.78-23.42,64.37-39.97,17.7-14.96,32.72-31.99,45.08-51.38,9.56-14.99,16.79-31.06,22.03-48.21,5.63-18.41,7.23-37,6.55-55.99-.11-3.12-.96-6.22-1.14-9.34-.07-1.18.78-2.42,1.22-3.63.88,4.25,1.77,8.5,2.65,12.75.26-3.47-.06-6.89-.38-10.31-.35-3.6-.7-7.19-1.05-10.79,4.17,9.81,8.34,19.61,12.52,29.42-2.43-.01-4.86-.12-7.29-.02-4.22.17-5.46,2.17-3.48,5.99-.58,5.23-1.42,10.44-1.68,15.68-.29,5.94-3.24,11.91.47,17.88,2.79,4.49,4.94,9.36,7.56,13.95,2.02,3.55,4.33,6.94,6.52,10.39-.32,1.01-.64,2.02-.97,3.03-1.42-1.23-3.27-2.21-4.18-3.74-4.21-7.14-8.15-14.43-12.9-22.93-1.51,6.51-2.68,11.59-3.86,16.68-1.39,3.16-2.51,6.48-4.24,9.45-3.4,5.85-4.16,11.35-.67,17.67,4.47,8.11,8.11,16.67,12.11,25.03-.41.95-.82,1.9-1.23,2.85-1.69-2.01-3.81-3.81-4.99-6.09-3.03-5.86-5.65-11.94-8.66-18.43-5.34,5.19-5.44,13.04-12.28,15.53-.72-.59-1.43-1.17-2.31-1.9-3.02,4.13-5.99,7.9-8.58,11.92-.84,1.3-1.44,3.63-.84,4.85,4.03,8.17,8.42,16.16,12.69,24.21,1.35,2.64,2.71,5.29,4.06,7.93-.62.69-1.25,1.37-1.87,2.06-3.91-6.41-7.8-12.82-11.72-19.22-1.23-2.01-2.51-3.99-4.07-6.47-5.84,5.34-8.62,12.86-16.35,14.59-.75-1.2-1.5-2.39-2.37-3.77-3.71,3.25-7.32,6.14-10.57,9.41-1.08,1.09-2.12,3.48-1.65,4.66,2.94,7.34,6.31,14.51,9.54,21.74.38,1.64.76,3.28,1.14,4.92-5.68-2.08-6.68-7.65-8.99-12.19-2.01-3.97-3.76-8.07-5.79-12.47-6.8,4.74-12.56,8.75-18.32,12.77-4.01,2.5-8.2,4.78-11.94,7.64-1.16.88-1.99,3.73-1.44,5.04,2.48,5.9,5.51,11.57,8.34,17.32.35,1.32.7,2.64,1.05,3.96-1.85-1.35-4.35-2.32-5.41-4.13-2.5-4.26-4.12-9.02-6.51-13.35-.8-1.45-3.34-3.46-4.24-3.1-5.43,2.18-10.62,4.98-15.89,7.57-5.4,2.14-10.81,4.27-16.81,6.64,3.56,7.45,6.64,13.91,9.73,20.38l.21,2.99c-1.64-1.24-3.9-2.14-4.82-3.78-2.55-4.57-4.41-9.51-6.84-14.15-.65-1.24-2.6-2.93-3.56-2.71-5.36,1.26-10.6,3.05-15.88,4.65-4.82,1.11-9.7,2.03-14.42,3.48-.92.28-2.05,2.91-1.67,3.92,1.77,4.64,4.04,9.1,6.14,13.62.32.99.65,1.98.97,2.97-1.62-.91-3.88-1.43-4.75-2.82-2.35-3.75-4.01-7.93-6.17-11.82-.72-1.3-2.18-3.23-3.2-3.17-5.99.35-11.96,1.21-17.93,1.9-5.83.41-11.65.82-18.21,1.28,2.92,6.99,5.55,13.33,8.19,19.66.06.97.13,1.94.19,2.91-1.39-1-3.34-1.71-4.06-3.07-1.99-3.75-3.62-7.71-5.13-11.7-3.03-8.01-3.11-8.16-11.19-8.15-2.97,0-5.95.03-8.92.05-6.15-.62-12.3-1.23-19.04-1.91,2.61,7.76,4.97,14.77,7.33,21.79-1.38.02-2.75.04-4.13.05,0,0,0,0,0,0-1.62-4.67-3.73-9.23-4.75-14.02-1.42-6.68-5.06-10.09-11.81-10.76-2.9-.29-5.72-1.42-8.58-2.17-6.78-2.26-13.55-4.52-21.3-7.11,3.4,9.7,6.45,18.37,9.49,27.04,0,.34,0,.68,0,1.02-1.3-.9-3.07-1.53-3.79-2.77-1.63-2.83-2.97-5.88-4.02-8.97-3.52-10.43-6.42-21.23-18.63-25.23-.61-.2-1.12-.68-1.68-1.02-10.85-7.64-21.7-15.28-32.82-23.11,1.26,5.52,2.58,11.31,3.9,17.09-5.4-10.06-10.87-20.08-16.17-30.19-4.47-8.52-9.17-16.97-12.98-25.79-3.8-8.79-6.64-17.99-9.89-27.02Z"/>
  <path class="cls-15" d="M785.72,594.64c3.98,2.04.96-3.24,3.71-2.83,2.37,3.52,5.54,7.19,7.48,11.42,1.74,3.8,2.37,8.19,3.02,12.38.81,5.22,1.54,10.5,1.59,15.77.06,5.57-.25,11.23-1.24,16.7-1.02,5.65-5.55,8.49-10.77,9.88-15.88,4.21-27.11,14.69-35.7,27.83-5.57,8.52-8.93,18.46-13.99,27.36-7.53,13.24-15.08,26.54-23.77,39.03-9.06,13.03-20.05,24.73-29.05,37.8-4.36,6.34-6.09,14.5-9.01,21.83-2.29,1.42-4.58,2.84-6.87,4.26-.15-1.5-.54-3.02-.39-4.49.2-1.95.71-3.9,1.29-5.79,1.52-5.01,2.09-10.7,4.93-14.82,7.51-10.88,16.27-20.88,24.06-31.59,9.44-12.98,19.32-25.78,27.26-39.65,6.61-11.54,10.33-24.69,16.01-36.81,4.19-8.94,8.81-17.9,17.72-23.37,3.41-2.09,5.11-4.56,3.21-8.59-.3-.63.04-1.56.1-2.51h5.04c-1.54-1.21-2.35-1.85-2.81-2.21.1-3.42,7.22-5.92.36-9.26,1.91-3.46,4.2-6.77,5.66-10.41,4.23-10.57,8.14-21.27,12.17-31.92Z"/>
  <path class="cls-8" d="M579.27,728.13c-.2-.85-.69-1.74-.56-2.53.5-3.05-.12-4.91-3.59-5.82-6.73-1.76-9.69-7.55-12.74-13.09-3.89-7.06-5.05-14.57-4.48-22.6.46-6.46-.16-12.99.16-19.47.44-8.96,1.05-17.92,2.12-26.82.34-2.81,2.44-5.38,3.63-8.1,3.56-8.16,7.32-16.24,10.49-24.55,1.5-3.95,1.45-8.48,2.8-12.51,1.16-3.45,3.41-6.51,5.01-9.83,2.58-5.36,4.83-10.89,7.59-16.15,2.28-4.34,5.08-8.41,7.7-12.56,3.09-4.91,6.27-9.75,9.35-14.67,8.18-13.06,16.51-26.04,24.39-39.27,3.44-5.78,5.93-12.12,8.85-18.2,3-1.34,5.99-2.68,8.99-4.01-2.45,5.01-4.48,10.3-7.44,14.99-16.2,25.69-32.2,51.49-44.93,79.12-2.6,5.64-4.03,11.87-5.5,17.95-1.34,5.55,1.21,10.43,3.95,15.05,1.43,2.41,3.18,4.63,4.79,6.94-1.09,1.82-2.22,3.62-3.25,5.47-6.97,12.44-13.97,24.86-20.77,37.39-.6,1.11.11,2.93.22,4.41-4.06,3.41-4.82,8.34-5.91,13.08-.7,3.05-1.26,6.14-1.82,9.22-1.34,7.38-2.24,14.89.79,21.95,1.38,3.23,3.95,7.39,6.82,8.23,5.81,1.71,12.2,1.4,18.34,2.05.97.1,1.86.87,2.79,1.33-5.92,4.33-11.85,8.66-17.77,12.99Z"/>
  <path class="cls-16" d="M467.91,957.27c-4.95-2.47-9.91-4.93-14.86-7.4-3.68-2.96-7.36-5.92-11.04-8.88-.66-.33-1.32-.67-1.98-1-1.46-1.95-2.79-4.01-4.39-5.83-4.47-5.08-4.67-6.1-.87-11.64,3.71-5.4,5.34-11.33,5.26-17.82-.1-8.65-3.86-15.99-8.01-23.25-2.83-4.96-5.34-10.11-7.99-15.18,8.65,3.56,17.34,7.02,25.92,10.72,8.77,3.78,17.43,7.81,26.13,11.74.04,1.16-.09,2.35.14,3.46,3.83,18.44-.7,33.86-16.18,45.44-2.95,2.21-3.61,4.84-.95,8.03,3.11,3.73,5.89,7.73,8.81,11.62Z"/>
  <path class="cls-14" d="M370.02,912.87c-28.69-13.65-56.28-29.06-77.42-53.47-20.54-23.71-29.48-51.62-28.07-82.94.91-20.14,3.1-40.1,7.89-59.73.53,1.58,1.29,3.13,1.53,4.76.46,3.15.63,6.34.93,9.52.11,4.64.21,9.29.32,13.93.12.7.25,1.39.37,2.09.2,3.24.4,6.49.6,9.73-.05,6.57-.46,13.16-.03,19.69.3,4.61.36,10.29,2.99,13.46,4.16,5.02,1.99,9.65,1.89,14.53-.12,5.91-1.46,12.11-.13,17.67,1.63,6.78,5.36,13.09,8.44,19.48,5.33,11.04,13.96,19.54,23.25,26.96,16.27,12.98,33.31,25,49.96,37.52,2.68,2.02,5,4.53,7.48,6.81Z"/>
  <path class="cls-11" d="M660.18,824.39c.08-3.05-.22-6.17.32-9.13.74-4.09.25-7.51-1.64-11.39-1.47-3.03-1.68-7.46-.71-10.75,3.39-11.55,11.93-20.07,18.82-29.52,11.37-15.61,23.12-30.95,34.22-46.74,1.62-2.3,1.82-7.14.46-9.59-1.71-3.1-4.9-6.36-9.8-5.17-1.09.27-2.48-.65-3.73-1.03.67-.34,1.34-.67,2-1.01.96-.68,1.92-1.36,2.88-2.04.91-.38,1.82-.77,2.73-1.15.75-.63,1.5-1.26,2.25-1.88,2.08-1.59,4.14-3.2,6.25-4.77,5.57-4.14,11.15-8.25,16.73-12.37-.5,3.35-.91,6.71-1.51,10.03-1.55,8.54-1.35,18.01-5.18,25.38-6.83,13.13-15.75,25.25-24.48,37.3-9.79,13.51-20.45,26.4-30.48,39.75-2.02,2.68-3.82,6.14-4.11,9.38-.62,7.01-.2,14.11-.21,21.17-1.6,1.18-3.21,2.37-4.81,3.55Z"/>
  <path class="cls-28" d="M664.99,820.84c0-7.06-.42-14.17.21-21.17.29-3.24,2.1-6.7,4.11-9.38,10.03-13.35,20.68-26.23,30.48-39.75,8.73-12.05,17.65-24.17,24.48-37.3,3.83-7.37,3.63-16.84,5.18-25.38.6-3.33,1.01-6.69,1.51-10.03,5.81-5.8,11.88-11.37,17.35-17.47,6.78-7.57,13.07-15.58,19.57-23.4,6.85,3.34-.26,5.84-.36,9.26.46.36,1.27,1,2.81,2.21h-5.04c-.05.95-.39,1.88-.1,2.51,1.9,4.03.2,6.5-3.21,8.59-8.91,5.47-13.54,14.43-17.72,23.37-5.68,12.12-9.4,25.27-16.01,36.81-7.94,13.88-17.82,26.68-27.26,39.65-7.79,10.7-16.55,20.7-24.06,31.59-2.84,4.12-3.41,9.82-4.93,14.82-.57,1.89-1.09,3.83-1.29,5.79-.15,1.47.24,2.99.39,4.49-2.04,1.59-4.09,3.18-6.13,4.78ZM767.72,639.41c-.12.28-.24.56-.36.84.28.12.62.39.83.31.2-.08.26-.52.38-.8-.28-.12-.56-.24-.84-.36Z"/>
  <path class="cls-15" d="M370.02,912.87c-2.48-2.28-4.8-4.79-7.48-6.81-16.65-12.52-33.69-24.54-49.96-37.52-9.3-7.42-17.93-15.93-23.25-26.96-3.08-6.39-6.81-12.7-8.44-19.48-1.34-5.56,0-11.75.13-17.67.1-4.88,2.26-9.51-1.89-14.53-2.62-3.17-2.69-8.84-2.99-13.46-.43-6.54-.02-13.13.03-19.69,1.95,6.75,3.91,13.49,5.86,20.23.28.68.55,1.36.83,2.04.01.33.09.65.23.96.3.67.59,1.35.89,2.02.57,1.7.81,3.6,1.76,5.05,5.02,7.67,10.22,15.22,15.35,22.81,1.52,3.79,3.04,7.57,4.84,12.05-4.79-.74-8.24.75-10.3,4.86-.25.51-1.03.92-1.63,1.06-3.13.75-3.73,2.87-2.38,5.28,3.69,6.58,6.52,14.18,11.75,19.27,10.88,10.61,23.01,19.94,34.76,29.64,6.89,5.69,13.92,11.23,21.08,16.58,5.79,4.33,11.86,8.27,17.81,12.39.33,0,.66.01.98.02,3.19,2.1,6.15,4.74,9.61,6.21,8.35,3.55,16.92,6.56,25.4,9.78h0c1.33,1.01,2.65,2.01,3.98,3.02,1,1.68,2,3.37,3.01,5.05-16.66-7.4-33.31-14.8-49.97-22.2Z"/>
  <path class="cls-8" d="M467.91,957.27c-2.92-3.88-5.71-7.89-8.81-11.62-2.66-3.19-2-5.82.95-8.03,15.48-11.58,20.01-27,16.18-45.44-.23-1.12-.1-2.31-.14-3.46,1.8,1.01,3.6,2.04,5.41,3.03,7.16,3.91,13.36,8.87,17.6,15.99-1.12,14.78-7.35,27.12-17.8,37.48-6.69,6.63-6.61,6.62-2.38,14.85.54,1.05.1,2.6.12,3.93-3.71-2.24-7.42-4.48-11.13-6.72Z"/>
  <path class="cls-10" d="M599.85,611.99c-1.61-2.31-3.36-4.53-4.79-6.94-2.74-4.62-5.29-9.51-3.95-15.05,1.47-6.08,2.9-12.31,5.5-17.95,12.74-27.63,28.74-53.43,44.93-79.12,2.96-4.69,4.98-9.98,7.44-14.99,3.62-1.45,7.24-2.9,10.87-4.35-.8,1.89-1.41,3.89-2.44,5.64-7.03,11.84-14.49,23.43-21.14,35.47-7.78,14.07-14.96,28.47-22.23,42.82-3.29,6.5-6.69,13.03-9.06,19.88-1.32,3.8-1.11,8.34-.71,12.47.44,4.58,1.88,9.05,2.89,13.57-2.43,2.85-4.87,5.7-7.3,8.55Z"/>
  <path class="cls-24" d="M636,737.01c-2.59,7.58-5.79,15.02-7.61,22.79-2.7,11.48,1.62,20.71,10.8,28.02,2.46,1.96,4.15,4.95,5.99,7.61,2.82,4.07,6.11,8,7.96,12.5,1.46,3.55,1.11,7.86,1.43,11.84.22,2.71.21,5.44.3,8.16-3.44,2.44-6.88,4.88-10.32,7.33-.5-3.64-2.28-7.68-1.26-10.83,2.5-7.71-1.05-12.71-5.89-17.49-4.45-4.4-9.01-8.71-13.74-12.8-6.32-5.46-7.13-12.94-7.55-20.38-.46-8.27-.68-16.63,3.15-24.46.55-1.13-.27-2.93-.46-4.42,1.53-1,3.06-1.99,4.6-2.99,4.2-1.63,8.41-3.26,12.61-4.89Z"/>
  <path class="cls-22" d="M440.02,939.98c.66.33,1.32.67,1.98,1,1.34,1.96,2.67,3.92,4.01,5.88-4.69-2.22-9.39-4.44-14.08-6.66-.97-1.07-1.95-2.14-2.92-3.22-.67-.33-1.33-.67-2-1-.67-.66-1.34-1.33-2.01-1.99-.66-.34-1.33-.67-1.99-1.01-1-.67-2-1.34-3-2.01-.33-.33-.67-.66-1-.99-1.33-1-2.67-2-4-3-.67,0-1.34,0-2,0,0,0,0,0,0,0-.72-.97-1.22-2.4-2.18-2.83-3.52-1.57-7.19-2.82-10.8-4.18-1-.66-2.01-1.32-3.01-1.98-2.33-.67-4.66-1.34-6.99-2.01-.67-.33-1.34-.67-2.01-1-2-1-3.99-2-5.99-3-2-1.33-4-2.66-6.01-4l-1.99-1.01c-.67-.66-1.34-1.33-2.01-1.99-.33,0-.66,0-.99-.01-1-1-2.01-1.99-3.01-2.99-2-1.67-4-3.34-6-5.01-1.09-1.59-2.06-3.26-3.28-4.74-4.43-5.36-8.33-10.87-9.82-17.97-2.29-10.85,3.52-19.75,6.28-29.4,2.26.66,4.53,1.32,6.79,1.97.99.12,1.98.23,2.96.35,3.69,1.6,7.37,3.2,11.06,4.8-.59.68-1.18,1.38-1.78,2.05-2.69,3-5.96,5.67-7.91,9.1-1.64,2.89-1.73,6.67-2.53,10.04-2.28,9.64-.34,18.22,7.03,25.02,7.6,7.02,16.17,12.54,26.1,15.95,10.06,3.45,19.66,7.62,27.53,15.43,4.35,4.31,10.33,6.98,15.58,10.38Z"/>
  <path class="cls-12" d="M696.01,1197.01c-1.28-3.02-3.21-5.92-3.75-9.06-3.03-17.79-12.06-32.71-22.02-47.21-12.25-17.83-28.61-30.97-46.88-42.29-14.83-9.2-30.67-15.67-47.55-19.08-12.41-2.51-25.22-3.83-37.88-4.14-13.79-.34-27.78.02-41.41,2.02-24.26,3.56-48.16,9.18-70.13,20.68-9.04,4.73-17.58,10.4-26.46,15.44-3.82,2.16-7.93,3.79-11.91,5.66,8.62-5.59,16.97-11.67,25.92-16.67,25.7-14.37,53.35-23.09,82.46-27.26,1.3-.19,2.57-.64,3.85-.97,5.69-.37,11.38-1.07,17.07-1.04,9.25.04,18.49.52,27.74.87,5.24.2,10.47.5,15.7.75,39.31,5.6,73.42,21.76,100.87,50.72,13.76,14.52,23.49,31.72,30.14,50.62.61,1.72,1.27,3.42,1.9,5.13-.02,1.4-.24,2.83,0,4.19.68,3.9,1.54,7.77,2.33,11.65Z"/>
  <path class="cls-2" d="M340.01,1399.99c-1.32-5.79-2.64-11.57-3.9-17.09,11.12,7.83,21.97,15.47,32.83,23.11.3.95.62,1.89.9,2.84,2.73,9.38,5.44,18.76,8.17,28.14-15.51-9.42-28.18-21.75-37.99-37.01Z"/>
  <path class="cls-27" d="M641,1360.96c7.73-1.73,10.51-9.24,16.35-14.59,1.56,2.48,2.84,4.46,4.07,6.47,3.92,6.4,7.82,12.81,11.72,19.22-4.61,5.73-9.21,11.47-13.82,17.2-2.2-1.09-4.4-2.18-6.6-3.27-.57-.34-1.15-.68-1.72-1.03-3.33-8-6.67-16.01-10-24.01Z"/>
  <path class="cls-27" d="M604,1386.03c5.76-4.01,11.52-8.03,18.32-12.77,2.03,4.39,3.77,8.5,5.79,12.47,2.31,4.55,3.31,10.12,8.99,12.2,1.35,3.11,2.69,6.21,4.04,9.32-.7.52-1.4,1.04-2.09,1.55-.6-1.34-1.04-2.77-1.81-4-3.6-5.75-3.69-5.65-9.03-1.65-3.9,2.92-7.31,7.52-13.29,4.84-.3,0-.59,0-.89-.02-3.34-7.31-6.67-14.63-10.01-21.94Z"/>
  <path class="cls-2" d="M711.86,1283.93c-2.18-3.46-4.49-6.84-6.52-10.39-2.62-4.59-4.78-9.47-7.56-13.95-3.71-5.97-.76-11.94-.47-17.88.25-5.24,1.09-10.45,1.68-15.68,1.24.46,3.1.56,3.62,1.45,4.19,7.08,8.14,14.31,12.16,21.49-.97,11.66-1.94,23.31-2.91,34.97Z"/>
  <path class="cls-18" d="M428.21,774.95c3.99-12.2-.02-22.94-6.34-33.1-6.47-10.4-12.89-20.87-20.01-30.82-5.48-7.65-12.09-14.47-18.03-21.8-1.61-1.99-2.59-4.48-3.86-6.74,2.35.77,4.7,1.55,7.05,2.32,2.08,3.31,3.77,6.97,6.31,9.88,13.63,15.62,25.9,32.2,37.12,49.66,5.7,8.87,8.55,17.92,5.39,27.66-1.58,4.89.79,8.21,1.18,12.25-2.94-3.1-5.87-6.2-8.81-9.3Z"/>
  <path class="cls-2" d="M697.16,1329.12c-4-8.36-7.65-16.92-12.11-25.03-3.48-6.32-2.73-11.82.67-17.67,1.72-2.97,2.84-6.29,4.24-9.45,1.48,2.97,3.07,5.89,4.43,8.91,3.65,8.11,7.21,16.27,10.81,24.4-2.68,6.28-5.35,12.56-8.03,18.84Z"/>
  <path class="cls-27" d="M567.96,1406.98c5.27-2.59,10.46-5.39,15.89-7.57.9-.36,3.44,1.64,4.24,3.1,2.39,4.33,4.01,9.1,6.51,13.35,1.06,1.81,3.57,2.78,5.41,4.13.63.69,1.25,1.38,1.88,2.07,1.42,3.77,2.84,7.55,4.27,11.32-1.03.51-2.06,1.02-3.09,1.53-.69-1.68-1.29-3.41-2.1-5.03-4.06-8.15-4.24-8.23-12.11-3.78-4.08,2.3-8.04,3-12.02-.11-2.96-6.33-5.92-12.67-8.88-19Z"/>
  <path class="cls-27" d="M670,1322.98c6.84-2.5,6.94-10.34,12.28-15.53,3.01,6.49,5.63,12.57,8.66,18.43,1.18,2.28,3.3,4.07,4.99,6.09-3.21,6.75-6.42,13.5-9.62,20.25-1.08-1.08-2.15-2.17-3.23-3.25-1.15-2.55-2.18-5.16-3.46-7.64-3.15-6.14-6.4-12.23-9.62-18.33Z"/>
  <path class="cls-27" d="M488.96,1429.08c5.97-.69,11.94-1.55,17.93-1.9,1.02-.06,2.48,1.87,3.2,3.17,2.16,3.89,3.82,8.07,6.17,11.82.87,1.39,3.12,1.9,4.75,2.82,2.39,5.88,4.78,11.77,7.16,17.65-1.07.23-2.14.46-3.22.69-1.56-3.61-3.08-7.23-4.68-10.82-1.55-3.51-4.05-5.14-7.85-3.47-5.33,2.34-10.16,1.59-14.63-2.03-.59-.35-1.19-.69-1.78-1.04-2.35-5.63-4.71-11.26-7.06-16.89Z"/>
  <path class="cls-27" d="M529.99,1421.01c5.28-1.61,10.52-3.39,15.88-4.65.95-.22,2.9,1.46,3.56,2.71,2.43,4.64,4.29,9.58,6.84,14.15.92,1.64,3.17,2.54,4.82,3.78,2.01,4.99,4.02,9.98,6.03,14.97-1.01.32-2.02.64-3.03.97-1.74-3.86-3.25-7.85-5.36-11.5-.6-1.04-3.15-1.85-4.39-1.46-5.37,1.69-10.49,2.2-15.48-.96-.29,0-.59,0-.88-.03-2.66-5.99-5.33-11.98-7.99-17.96Z"/>
  <path class="cls-27" d="M449.84,1430.06c2.97-.02,5.95-.05,8.92-.05,8.08,0,8.16.14,11.19,8.15,1.51,3.98,3.14,7.95,5.13,11.7.72,1.36,2.67,2.06,4.06,3.07,1.67,4.59,3.35,9.18,5.02,13.77-1.37.04-2.75.07-4.12.11-.43-5.9-3.26-11.05-6.56-10.73-5.58.54-10.28-1.06-14.73-4.08-.56-.35-1.13-.69-1.69-1.04-.47-1.56-.86-3.15-1.41-4.69-1.91-5.41-3.87-10.8-5.81-16.2Z"/>
  <path class="cls-20" d="M590.15,876.05c-7.55.22-15.12.45-20.24-6.66-1.25-1.73-2.8-3.47-3.35-5.45-2.02-7.26-6.83-12.62-11.33-18.33-7.17-9.09-5.87-19.54-3.97-29.95.41-2.27,1.13-4.48,1.56-6.74,1.25-6.61.11-7.93-6.64-7.88l8.48-9.06c.79,4.29,2.43,8.62,2.18,12.85-.53,9.2-2.02,18.34-3.13,27.5-.56,4.61,1.88,8.77,6.26,10.65,0,.34,0,.68.01,1.01.49.66.85,1.51,1.5,1.95,5.72,3.86,8.49,8.94,8.9,16.09.31,5.27,4.57,9.03,9.9,9.7,4.46.56,9.75,1.81,12.68-3.74.34,0,.67,0,1.01-.01,2.62-.56,5.25-1.11,7.87-1.67-3.91,3.24-7.81,6.48-11.72,9.72Z"/>
  <path class="cls-27" d="M705.19,1310.28c-3.6-8.14-7.15-16.29-10.81-24.4-1.36-3.02-2.95-5.94-4.43-8.91,1.18-5.08,2.35-10.17,3.86-16.68,4.75,8.5,8.69,15.8,12.9,22.93.9,1.53,2.76,2.51,4.18,3.74-1.9,7.77-3.8,15.54-5.7,23.32Z"/>
  <path class="cls-7" d="M537.98,1438.97c.29.02.59.03.88.03.63,1.37,1.25,2.73,1.87,4.1,2.15,5.15,4.3,10.3,6.45,15.45-6.34,1.36-12.67,2.73-19.01,4.09-2.39-5.88-4.78-11.77-7.16-17.65-.32-.99-.65-1.98-.98-2.97,5.98-1.02,11.96-2.03,17.94-3.05Z"/>
  <path class="cls-27" d="M378,1437c-2.72-9.38-5.44-18.76-8.17-28.14-.28-.95-.6-1.9-.9-2.84.56.35,1.07.83,1.68,1.02,12.21,3.99,15.11,14.8,18.63,25.23,1.05,3.1,2.39,6.15,4.02,8.97.71,1.24,2.49,1.86,3.79,2.77.28,1.1.56,2.2.83,3.3-6.63-3.44-13.25-6.87-19.88-10.31Z"/>
  <path class="cls-7" d="M484.16,1466.69c-1.67-4.59-3.35-9.18-5.02-13.77-.06-.97-.13-1.94-.19-2.91,1.2-.34,2.39-.72,3.6-1,4.49-1.04,8.98-2.04,13.48-3.05.59.35,1.19.69,1.78,1.04.7,1.66,1.4,3.32,2.1,4.98,1.76,4.65,3.51,9.31,5.27,13.96l-21,.74Z"/>
  <path class="cls-12" d="M333.97,1171.97c-2.13,4.24-4.18,8.52-6.39,12.73-5.07,9.65-10.27,19.24-15.3,28.91-1.9,3.66-3.74,7.4-5.12,11.28-1.15,3.23-1.45,6.74-2.35,10.07-1.47,5.42-3.52,10.72-4.57,16.22-.94,4.93-1.08,10.04-1.2,15.08-.18,7.82.06,15.66-.14,23.48-.05,1.76-1.19,3.5-1.82,5.25-.29-9.25-1.42-18.57-.73-27.75,2.56-33.97,15.33-64.26,34.67-91.98.84-1.2,1.96-2.2,2.94-3.29Z"/>
  <path class="cls-7" d="M567.11,1451.95c-2.01-4.99-4.02-9.98-6.03-14.97-.07-1-.14-1.99-.2-2.99,5.47-1.36,10.94-2.72,16.41-4.08.52.37,1.04.75,1.56,1.12,1.76,4.5,3.52,9.01,5.29,13.51-5.67,2.47-11.35,4.93-17.02,7.4Z"/>
  <path class="cls-23" d="M578.85,1431.04c-.52-.37-1.04-.75-1.56-1.12-.15-1.31-.3-2.63-.44-3.94,3.98,3.11,7.94,2.41,12.02.11,7.87-4.44,8.05-4.36,12.11,3.78.81,1.62,1.4,3.35,2.1,5.03-5.34,2.74-10.69,5.49-16.03,8.23-1.21-5.06-3.61-9.32-8.19-12.09Z"/>
  <path class="cls-23" d="M499.9,1451.99c-.7-1.66-1.4-3.32-2.1-4.98,4.46,3.62,9.3,4.38,14.63,2.03,3.8-1.67,6.3-.04,7.85,3.47,1.59,3.59,3.12,7.22,4.68,10.82-5.31.77-10.63,1.54-15.94,2.31-1.89-5.32-2.77-11.31-9.12-13.65Z"/>
  <path class="cls-7" d="M457.05,1450.95c.56.35,1.13.69,1.7,1.04,1.47,4.59,2.93,9.17,4.4,13.76-6.68-1-13.36-2-20.04-3-1.05-3.58-2.09-7.15-3.14-10.73,5.69-.36,11.39-.71,17.08-1.07Z"/>
  <path class="cls-23" d="M540.73,1443.09c-.62-1.37-1.25-2.73-1.87-4.1,4.99,3.16,10.11,2.65,15.48.96,1.24-.39,3.79.43,4.39,1.46,2.1,3.65,3.62,7.64,5.36,11.5-4.69,1.62-9.38,3.24-14.07,4.85-1.38-5.97-3.54-11.46-9.28-14.68Z"/>
  <path class="cls-23" d="M614.89,1407.98c5.99,2.68,9.4-1.92,13.29-4.84,5.34-4,5.44-4.09,9.03,1.65.77,1.23,1.22,2.66,1.81,4-4.48,3.83-8.96,7.67-13.45,11.5-1.02-1.35-1.78-3.14-3.13-3.95-1.83-1.09-1.58-5.8-5.49-3.32-.25-.07-.51-.12-.77-.14-.44-1.63-.87-3.27-1.3-4.9Z"/>
  <path class="cls-7" d="M641.13,1407.24c-1.35-3.11-2.7-6.21-4.04-9.32-.38-1.64-.76-3.28-1.14-4.92,5.02-2.68,10.04-5.35,15.05-8.03.57.34,1.15.68,1.73,1.03.87,2.5,1.74,5,2.61,7.5-4.73,4.58-9.47,9.16-14.2,13.74Z"/>
  <path class="cls-7" d="M616.2,1412.88c.26.02.52.07.77.14,1.45,3.46,2.9,6.92,4.36,10.39-5.06,3.32-10.11,6.64-15.17,9.96-1.42-3.77-2.84-7.55-4.26-11.32,4.77-3.06,9.54-6.11,14.3-9.17Z"/>
  <path class="cls-27" d="M714.77,1248.96c-4.02-7.18-7.96-14.41-12.16-21.49-.53-.89-2.38-.99-3.62-1.45-1.98-3.82-.74-5.83,3.48-5.99,2.42-.1,4.86,0,7.29.02,4.67,9.12,4.53,19.07,5.01,28.91Z"/>
  <path class="cls-23" d="M463.15,1465.75c-1.47-4.59-2.93-9.17-4.4-13.76,4.45,3.02,9.15,4.62,14.73,4.08,3.3-.32,6.13,4.83,6.56,10.73-5.63-.35-11.26-.7-16.89-1.05Z"/>
  <path class="cls-5" d="M397.88,1447.31c-.28-1.1-.56-2.2-.83-3.3,0-.34,0-.68,0-1.02,5.62.95,11.24,1.96,16.88,2.78.97.14,2.05-.52,3.08-.81.34.02.67.05,1.01.07,1.36,4.11,2.72,8.22,4.08,12.33-8.07-3.35-16.15-6.7-24.22-10.05Z"/>
  <path class="cls-25" d="M422.11,1457.36c-1.36-4.11-2.72-8.22-4.08-12.33,4.96,2.84,9.78,6.1,15.97,4.97,0,0,0,0,0,0,2.01,4.01,4.03,8.02,6.04,12.02l-17.94-4.67Z"/>
  <path class="cls-12" d="M379.99,1124.99c-2.63,2.98-5.09,6.15-7.94,8.91-5.41,5.23-11.41,9.9-16.52,15.4-6.34,6.83-11.98,14.31-18.07,21.38-.71.82-2.32.88-3.51,1.29,4.53-5.9,8.52-12.33,13.71-17.58,9.8-9.92,20.29-19.16,30.52-28.66.45-.41,1.19-.51,1.8-.75Z"/>
  <path class="cls-5" d="M683.08,1348.96c1.08,1.08,2.15,2.17,3.23,3.25-3.76,5.93-7.53,11.86-11.29,17.79-1.35-2.64-2.71-5.29-4.06-7.94,2.05-2.77,3.93-5.69,6.22-8.24,1.69-1.88,3.92-3.26,5.9-4.87Z"/>
  <path class="cls-24" d="M773.62,482.99c.67,3.7,1.33,7.39,2,11.09-3.49-5.73-6.99-11.47-10.48-17.2-.05-4.27-.1-8.53-.15-12.8,2.88,6.3,5.76,12.6,8.64,18.91Z"/>
  <path class="cls-25" d="M499.9,1451.99c6.35,2.34,7.22,8.34,9.12,13.65-1.28.1-2.57.2-3.85.3-1.75-4.65-3.51-9.31-5.26-13.96Z"/>
  <path class="cls-27" d="M696.01,1197.01c-.79-3.88-1.65-7.75-2.33-11.65-.24-1.35,0-2.79,0-4.19,1.19,3.15,2.37,6.31,3.56,9.46.35,3.6.71,7.19,1.05,10.79.33,3.42.64,6.84.38,10.31-.88-4.25-1.77-8.5-2.65-12.75,0-.66-.01-1.31-.02-1.97Z"/>
  <path class="cls-25" d="M540.73,1443.09c5.74,3.22,7.9,8.71,9.28,14.68-.94.26-1.89.51-2.83.77-2.15-5.15-4.3-10.3-6.45-15.45Z"/>
  <path class="cls-27" d="M440.05,1462.02c-2.01-4.01-4.03-8.02-6.04-12.02,1.38-.02,2.75-.04,4.13-.05.61.69,1.23,1.38,1.84,2.08,1.05,3.58,2.09,7.15,3.14,10.73-1.02-.24-2.04-.48-3.06-.73Z"/>
  <path class="cls-25" d="M578.85,1431.04c4.58,2.78,6.98,7.03,8.19,12.09-.97.47-1.94.95-2.9,1.42-1.76-4.5-3.53-9.01-5.29-13.51Z"/>
  <path class="cls-15" d="M274.87,731.01c-.29-3.18-.46-6.37-.93-9.52-.24-1.62-1-3.17-1.53-4.76.95-4.61,1.89-9.21,2.84-13.82.38.69.77,1.37,1.15,2.05-.15,2.99-.3,5.98-.46,8.97-.17,1.67-.35,3.35-.52,5.02-.03,1.69-.06,3.38-.09,5.07-.16,2.32-.31,4.65-.47,6.97Z"/>
  <path class="cls-25" d="M621.33,1423.41c-1.45-3.46-2.9-6.92-4.36-10.39,3.91-2.48,3.66,2.23,5.49,3.32,1.35.81,2.11,2.6,3.13,3.95-1.42,1.04-2.84,2.08-4.26,3.12Z"/>
  <path class="cls-28" d="M427.01,935.99c.67.33,1.33.67,2,1,.31.77.62,1.54.92,2.32-3.31-1.41-6.63-2.83-9.94-4.24-1-1.68-2-3.37-3.01-5.05,0,0,.02-.02.02-.02.67,0,1.34,0,2,0,.33.33.67.66,1,.99,1,.67,2,1.34,3,2.01.66.34,1.33.67,1.99,1.01.67.66,1.34,1.33,2.01,1.99Z"/>
  <path class="cls-30" d="M276.41,704.97c-.38-.68-.77-1.37-1.15-2.05.47-1.64.95-3.29,1.42-4.93.08-.3.15-.6.23-.91.35-1.37.71-2.73,1.06-4.1,2.94,2.61,1.95,10.27-1.56,11.99Z"/>
  <path class="cls-21" d="M601.87,866.32c-2.62.56-5.25,1.11-7.87,1.67,2.21-6.01,7.37-4.89,12.03-4.98-1.39,1.1-2.77,2.21-4.16,3.31Z"/>
  <path class="cls-25" d="M655.33,1393.5c-.87-2.5-1.74-5-2.61-7.5,2.2,1.09,4.4,2.18,6.6,3.27-1.33,1.41-2.66,2.82-3.99,4.23Z"/>
  <path class="cls-24" d="M446.01,946.87c-1.34-1.96-2.67-3.92-4.01-5.88,3.68,2.96,7.36,5.92,11.04,8.88-2.34-1-4.69-2-7.03-3Z"/>
  <path class="cls-12" d="M298.07,1303.99c3.86,2.17,4.64,5.76,1.94,9-.65-3-1.3-6-1.94-9Z"/>
  <path class="cls-24" d="M764.93,464c-.92-2.06-1.84-4.12-2.76-6.17.92,2.06,1.84,4.12,2.76,6.17Z"/>
  <path class="cls-12" d="M388.01,1119.03c-1.35.98-2.71,1.96-4.06,2.94,1.35-.98,2.71-1.96,4.06-2.94Z"/>
  <path class="cls-11" d="M429.93,939.31c-.31-.77-.62-1.54-.92-2.32.97,1.07,1.95,2.14,2.92,3.22-.67-.3-1.33-.6-2-.9Z"/>
  <path class="cls-12" d="M383.97,1121.95c-1.33,1.01-2.65,2.03-3.98,3.04,1.33-1.01,2.65-2.03,3.98-3.04Z"/>
  <path class="cls-12" d="M297.1,1295.99c3.45.92,1.14,2.77.7,4.32-.23-1.44-.47-2.88-.7-4.32Z"/>
  <path class="cls-15" d="M276.91,697.08c-.08.3-.15.61-.23.91-.04-.24-.11-.48-.1-.71,0-.07.22-.13.34-.19Z"/>
  <path class="cls-19" d="M554.68,791.99l-8.48,9.06c-10.34,11.32-15.91,24.98-18.06,39.85-1.58,10.88-1.69,21.96-2.45,32.96-1.19-.37-2.38-.74-3.57-1.11-2.15-9-4.08-18.07-6.52-26.99-3.46-12.64-7.3-25.17-10.96-37.75-.27-.94-.38-1.92-.57-2.88,4.64-6.37,9.28-12.74,13.91-19.12,4.37-5.17,8.78-10.31,13.11-15.52,12.46-14.96,27.47-27.03,43.15-38.35,1.74-1.26,3.37-2.66,5.05-4,5.92-4.33,11.85-8.66,17.77-12.99,7.2-4.46,14.59-8.65,21.56-13.45,13.89-9.57,28.07-18.88,38.42-32.64,14.92-17.31,28.11-62.07,23.72-81.67-13.28,18.85-29.03,34.68-47.81,47.4-18,10.4-37.3,17.8-56.89,24.49-.1-1.49-.82-3.31-.22-4.41,6.81-12.53,13.81-24.95,20.77-37.39,1.04-1.85,2.17-3.65,3.25-5.47,2.43-2.85,4.87-5.7,7.3-8.55,19.3-21.96,43.32-37.33,69.51-49.58,13.81-6.46,27.8-12.5,42.5-19.07.56,2.49,1.09,3.83,1.13,5.18.61,19.93,2.63,39.95,1.39,59.77-2.02,32.25-11.21,62.42-33.32,87.32-.44.49-.75,1.09-1.13,1.63-2.54,2.61-4.93,5.38-7.64,7.8-11.47,10.27-23.04,20.44-34.57,30.64-7.21,4.92-14.43,9.84-21.64,14.77-1.53,1-3.06,1.99-4.6,2.99-10.42,7.03-21.05,13.76-31.19,21.18-10.81,7.91-21.16,16.46-31.7,24.72-.41.4-.82.8-1.22,1.2Z"/>
  <path class="cls-30" d="M765.13,476.88c3.5,5.73,6.99,11.47,10.48,17.2,3.56,15.03,7.31,30.01,10.59,45.1,1.19,5.48,1.28,11.21,1.87,16.82.05,1.99.09,3.98.14,5.98,0,.69,0,1.38,0,2.06-.16.3-.16.61,0,.91-.83,9.9-1.66,19.79-2.49,29.69-4.03,10.65-7.94,21.35-12.17,31.92-1.46,3.64-3.75,6.95-5.66,10.41-6.5,7.82-12.79,15.83-19.57,23.4-5.47,6.1-11.54,11.67-17.35,17.47-5.58,4.12-11.16,8.23-16.73,12.37-2.1,1.56-4.17,3.18-6.25,4.77-.75.63-1.5,1.26-2.25,1.88-.91.38-1.82.77-2.73,1.15-.97.07-1.93.15-2.9.23,1.35-1.71,2.63-3.49,4.07-5.13,2.94-3.36,5.86-6.74,8.99-9.91,2.24-2.27,4.82-4.2,7.38-6.39-1.79-1.38-3.67-2.83-5.95-4.59,6.69-6.56,10.62-14.09,12.74-22.62.25-1.02,1.2-1.96,2.03-2.73,2.26-2.11,2.14-3.6-.48-5.52-5.22-3.85-5.04-7.78-1.01-12.51,1.48-1.74.98-5.16,1.5-8.59,3.87-3.36,4.78-9.13,5.55-14.77,1.28-9.33.63-19.23,3.61-27.92,2.58-7.52.9-13.67-.2-20.55-.4-2.52,1.45-5.33,1.91-8.07,1.6-9.5,6.76-18.43,4.4-28.59-1.96-8.41-1.42-16.99,3.98-23.69,3.13-3.89,5.3-7.51,6.27-12.28.97-4.74,4.11-3,7.11-1.44,1.09-2.12,2.1-4.08,3.11-6.05Z"/>
  <path class="cls-10" d="M645.03,727.13c11.53-10.2,23.09-20.37,34.57-30.64,2.71-2.42,5.1-5.19,7.64-7.8,1.22,2.52,3.06,4.93,3.51,7.57.67,4,2.67,5.21,6.3,4.79-7.68,4.66-15.36,9.32-23.04,13.97-8.82,4.16-18.88,5.74-26.38,12.7-.37.34-1.71-.37-2.6-.59Z"/>
  <path class="cls-22" d="M700.11,698.23c.97-.08,1.93-.15,2.9-.23-.96.68-1.92,1.36-2.88,2.04,0-.61-.02-1.21-.02-1.82Z"/>
  <path class="cls-19" d="M428.21,774.95c2.94,3.1,5.87,6.2,8.81,9.3,2.64,3.34,5.37,6.6,7.86,10.05.99,1.37,1.44,3.14,2.13,4.73-13.33-2.27-26.66-4.54-40-6.82-18.3-5.75-33.47-16.77-48.15-28.95.76,4.7,1.86,9.02,3.32,13.2,5,14.37,11.1,28.12,22.82,38.52,17.06,15.99,39.4,21.52,60.09,30.31,11.42,5.59,23.03,10.82,34.18,16.9,6.93,3.78,13.18,8.82,19.67,13.38.73.51,1.06,1.6,1.57,2.42-.08,8.47-.11,16.94-.3,25.41-.03,1.45-.73,2.88-1.12,4.32-4.25-7.12-10.44-12.08-17.6-15.99-1.81-.99-3.61-2.02-5.41-3.03-8.71-3.92-17.37-7.95-26.13-11.74-8.59-3.7-17.28-7.16-25.93-10.72-4.31-1.84-8.61-3.68-12.92-5.52-6.71-3.22-13.42-6.44-20.13-9.66-5.94-3.37-11.88-6.74-17.82-10.11-.36-.39-.71-.79-1.07-1.18l.12.1c-.41-.26-.81-.52-1.22-.78-.25-.15-.51-.2-.8-.16-4.26-4.12-8.65-8.12-12.76-12.39-14.35-14.88-22.97-32.96-27.5-52.81-3.13-13.7-4.65-27.76-6.89-41.67,9.45,1.63,19,2.8,28.32,4.97,19.82,4.61,39.22,10.61,56.31,22.13,7.14,4.82,13.71,10.49,20.54,15.77Z"/>
  <path class="cls-9" d="M407.01,792.22c13.33,2.27,26.66,4.54,40,6.82,5.79,7.71,8.54,16.77,9.8,26,1.44,10.52-3.09,15.15-14.02,16.27.8,1.38,1.55,2.68,2.31,3.99-20.7-8.78-43.03-14.32-60.09-30.31,2.45-1.32,4.79-2.95,7.38-3.9,9.2-3.38,14.37-9.89,14.63-18.87Z"/>
  <path class="cls-28" d="M788.21,561.98c-.05-1.99-.09-3.98-.14-5.98.05,1.99.09,3.98.14,5.98Z"/>
  <path class="cls-28" d="M788.21,564.95c-.16-.3-.16-.61,0-.91.11.22.24.43.3.65.01.05-.19.17-.3.25Z"/>
  <path class="cls-10" d="M370.19,838.95c.29-.04.55.01.8.16.41.26.81.52,1.22.78,0,0-.12-.1-.12-.1.36.39.71.78,1.07,1.18,5.94,3.37,11.88,6.74,17.82,10.11-4.65.31-9.3.62-13.94.94-.35,0-.69,0-1.04,0-3.69-1.6-7.37-3.2-11.06-4.8.92-3.28.39-7.49,5.26-8.27Z"/>
  <path class="cls-30" d="M301.08,809.87c-5.14-7.59-10.33-15.14-15.35-22.81-.95-1.45-1.19-3.36-1.76-5.05,1.27,1.5,2.67,2.9,3.78,4.5,4.11,5.92,7.73,12.22,12.27,17.78,7.2,8.83,15.56,16.52,25.38,22.49,1.11.67,1.74,2.13,2.6,3.22,0,0-.13.14-.13.14-1.63-.76-3.49-1.22-4.86-2.31-7.38-5.9-14.63-11.96-21.93-17.96Z"/>
  <path class="cls-30" d="M274.87,731.01c.15-2.33.31-4.65.47-6.97.55,1.04,1.55,2.06,1.59,3.12.2,5.71-.11,11.45.34,17.13.21,2.7,2.48,5.29,2.48,7.93-.01,7.89-.12,15.7,3.14,23.13.15.35-.56,1.08-.86,1.64-1.95-6.74-3.91-13.49-5.86-20.23-.2-3.24-.4-6.49-.59-9.73-.12-.7-.25-1.39-.37-2.09-.11-4.64-.21-9.29-.32-13.93Z"/>
  <path class="cls-30" d="M361.97,846.87c-2.26-.66-4.53-1.32-6.79-1.97-8.73-4.29-17.46-8.58-26.2-12.87-.37-.63-.75-1.26-1.12-1.89,0,0,.13-.14.13-.14,3.02,1.18,6.09,2.26,9.06,3.55,7.35,3.16,14.7,6.32,21.94,9.72,1.27.6,1.99,2.37,2.97,3.6Z"/>
  <path class="cls-30" d="M275.43,718.96c.17-1.67.35-3.34.52-5.02-.17,1.67-.35,3.34-.52,5.02Z"/>
  <path class="cls-30" d="M283.07,779.99c-.14-.3-.21-.62-.23-.96.07.32.15.64.23.96Z"/>
  <path class="cls-21" d="M554.68,791.99c.41-.4.82-.8,1.22-1.2,3.97,4.82,4.83,10.13,3.36,16.23-1.47,6.08-2.32,12.31-3.23,18.51-.93,6.29.67,12.09,3.97,17.47-4.38-1.88-6.82-6.04-6.26-10.65,1.11-9.16,2.6-18.31,3.13-27.5.24-4.23-1.4-8.56-2.18-12.85Z"/>
  <path class="cls-21" d="M592.99,868c-2.93,5.55-8.22,4.3-12.68,3.74-5.33-.67-9.59-4.43-9.9-9.7-.42-7.15-3.18-12.23-8.9-16.09-.64-.43-1-1.29-1.5-1.95,6.27,1.33,11.08,6.49,11.95,12.79,1.71,12.48,6.96,15.68,19.11,11.68.63-.21,1.28-.32,1.93-.47Z"/>
  <path class="cls-16" d="M645.03,727.13c.89.22,2.23.93,2.6.59,7.5-6.96,17.56-8.55,26.38-12.7-3.2,2.09-6.33,4.28-9.6,6.24-5.73,3.43-11.53,6.75-17.34,10.05-1.27.72-2.7,1.15-4.05,1.71-2,1.33-4.01,2.66-6.01,3.98-.33,0-.66,0-.99.01-4.2,1.63-8.41,3.26-12.61,4.89,7.21-4.92,14.42-9.84,21.64-14.77Z"/>
  <path class="cls-24" d="M637,737c2-1.33,4.01-2.66,6.01-3.98-2,1.33-4.01,2.66-6.01,3.98Z"/>
  <path class="cls-26" d="M693.44,1222.07c-.14,30.17-8.81,57.8-23.35,83.96-10.42,18.74-23.42,35.42-38.88,50.12-15.31,14.55-32.28,26.95-50.82,37.25-17.68,9.83-36.17,17.51-55.66,22.78-16.63,4.5-33.5,7.26-50.81,7.97-24.08.99-47.58-1.79-70.4-9.29-18.42-6.06-35.44-14.96-50.56-27.33-17-13.91-30.58-30.44-39.5-50.61-6.13-13.87-10.2-28.18-11.69-43.45-1.8-18.46-.03-36.4,4.66-54.14,6.39-24.22,17.83-45.99,32.76-66.03,15.33-20.58,33.72-38.03,54.78-52.49,23.97-16.46,50.23-28.18,78.38-35.77,23.83-6.42,48.11-8.32,72.52-6.82,27.66,1.69,53.7,9.55,77.87,23.58,19.74,11.46,36.31,26.29,48.58,45.41,11.03,17.19,18.68,35.93,20.69,56.56.59,6.1.96,12.22,1.43,18.33ZM305.78,1284.98c-.92,16.29,4.6,36.76,14.34,55.89,13.02,25.57,32.94,44.7,58.22,58.31,34.05,18.34,70.67,23.02,108.5,19.61,20.82-1.87,41.06-7.16,60.65-14.74,31.73-12.28,59.76-30.33,83.92-54.15,14.09-13.9,26.24-29.53,35.61-47.08,8.16-15.29,14.46-31.28,18.15-48.32,2.92-13.54,3.08-27.12,2.95-40.86-.13-13.51-3.17-26.37-7.85-38.77-7.61-20.13-19.42-37.47-35.65-51.93-14.5-12.92-30.86-22.42-48.91-29.08-25.18-9.29-51.14-12.84-78.07-11.1-13.97.9-27.66,2.75-41.18,6.01-19.91,4.8-39.01,11.93-57.07,21.64-16.86,9.07-32.75,19.67-46.83,32.65-17.78,16.4-33.12,34.75-44.87,56.17-13.77,25.1-21.79,51.49-21.92,85.73Z"/>
  <path class="cls-2" d="M683.08,1348.96c-1.99,1.61-4.22,2.99-5.9,4.87-2.29,2.55-4.17,5.48-6.22,8.24-4.27-8.05-8.66-16.04-12.69-24.21-.6-1.21,0-3.55.84-4.85,2.59-4.02,5.56-7.79,8.58-11.92.88.72,1.6,1.31,2.31,1.9,3.21,6.11,6.47,12.19,9.62,18.33,1.27,2.49,2.31,5.09,3.46,7.64Z"/>
  <path class="cls-2" d="M651,1384.97c-5.02,2.68-10.03,5.35-15.05,8.03-3.23-7.23-6.6-14.4-9.54-21.74-.47-1.18.57-3.57,1.65-4.66,3.25-3.26,6.86-6.16,10.57-9.41.87,1.38,1.62,2.58,2.37,3.77,3.33,8,6.67,16.01,10,24.01Z"/>
  <path class="cls-2" d="M417.02,1444.96c-1.03.29-2.11.95-3.08.81-5.64-.82-11.26-1.83-16.88-2.78-3.04-8.67-6.09-17.35-9.49-27.04,7.75,2.59,14.53,4.85,21.31,7.11,2.72,7.3,5.43,14.61,8.15,21.91Z"/>
  <path class="cls-2" d="M576.84,1425.98c.15,1.31.29,2.63.44,3.94-5.47,1.36-10.94,2.72-16.41,4.08-3.09-6.46-6.17-12.93-9.73-20.38,6.01-2.37,11.41-4.51,16.81-6.64,2.96,6.33,5.92,12.67,8.88,19Z"/>
  <path class="cls-2" d="M604,1386.03c3.34,7.31,6.67,14.63,10.01,21.94-5.01,2.69-10.03,5.37-15.04,8.05-2.83-5.75-5.86-11.42-8.34-17.32-.55-1.31.28-4.15,1.44-5.04,3.74-2.86,7.93-5.14,11.94-7.64Z"/>
  <path class="cls-2" d="M439.97,1452.02c-.61-.69-1.23-1.38-1.84-2.08-2.36-7.02-4.72-14.04-7.33-21.79,6.74.67,12.89,1.29,19.04,1.91,1.94,5.4,3.9,10.79,5.8,16.2.54,1.54.94,3.13,1.41,4.69-5.69.36-11.39.71-17.08,1.07Z"/>
  <path class="cls-27" d="M417.02,1444.96c-2.72-7.3-5.43-14.61-8.15-21.91,2.86.75,5.67,1.88,8.58,2.17,6.75.67,10.39,4.08,11.81,10.76,1.02,4.79,3.13,9.36,4.75,14.02-6.19,1.13-11.02-2.13-15.97-4.97-.34-.02-.67-.05-1.01-.07Z"/>
  <path class="cls-2" d="M496.02,1445.97c-4.49,1.01-8.99,2.02-13.48,3.05-1.21.28-2.4.66-3.6,1-2.64-6.33-5.28-12.66-8.2-19.66,6.56-.46,12.38-.87,18.21-1.28,2.35,5.63,4.71,11.26,7.06,16.89Z"/>
  <path class="cls-2" d="M537.98,1438.97c-5.98,1.02-11.96,2.03-17.94,3.05-2.09-4.52-4.36-8.97-6.14-13.62-.38-1.01.75-3.63,1.67-3.92,4.72-1.45,9.6-2.37,14.42-3.48,2.66,5.99,5.33,11.98,7.99,17.96Z"/>
  <path class="cls-5" d="M598.96,1416.02c5.01-2.68,10.03-5.37,15.04-8.05.3.02.59.02.89.02.43,1.63.87,3.27,1.3,4.9-4.77,3.05-9.53,6.11-14.3,9.17-.63-.69-1.25-1.38-1.88-2.07-.35-1.32-.7-2.64-1.05-3.96Z"/>
  <path class="cls-9" d="M576.04,659.27c19.6-6.69,38.9-14.08,56.89-24.49.36,1.78.9,3.54,1.03,5.33.48,6.5,3.78,10.33,9.37,14,5.47,3.6,9.2,9.85,13.69,14.94-10.35,13.76-24.53,23.07-38.42,32.64-6.97,4.8-14.36,8.98-21.56,13.45-.93-.46-1.82-1.23-2.79-1.33-6.14-.65-12.54-.34-18.34-2.05-2.88-.85-5.44-5.01-6.82-8.23-3.03-7.06-2.13-14.57-.79-21.95.56-3.08,1.12-6.17,1.82-9.22,1.09-4.74,1.85-9.67,5.91-13.08Z"/>
  <path class="cls-24" d="M376,852.01c.35,0,.69,0,1.04,0,7.83,2.33,15.64,4.78,23.52,6.92,3.43.93,7.03,1.22,10.55,1.8,4.31,1.84,8.61,3.68,12.92,5.52,2.65,5.07,5.16,10.22,7.99,15.18,4.15,7.27,7.91,14.6,8.01,23.25.07,6.5-1.56,12.42-5.26,17.82-3.8,5.54-3.59,6.56.87,11.64,1.6,1.82,2.93,3.88,4.39,5.83-5.25-3.41-11.23-6.07-15.58-10.38-7.87-7.81-17.47-11.97-27.53-15.43-9.93-3.41-18.5-8.93-26.1-15.95-7.37-6.8-9.31-15.38-7.03-25.02.8-3.38.88-7.15,2.53-10.04,1.94-3.43,5.22-6.1,7.91-9.1.6-.67,1.19-1.37,1.78-2.05Z"/>
  <path class="cls-15" d="M275.19,744.94c.12.7.25,1.39.37,2.09-.13-.7-.25-1.39-.37-2.09Z"/>
  <path class="cls-22" d="M705.74,696.86c.75-.63,1.5-1.26,2.25-1.88-.75.63-1.5,1.26-2.25,1.88Z"/>
  <path class="cls-15" d="M767.72,639.41c.28.12.56.24.84.36-.12.28-.18.72-.38.8-.2.08-.54-.2-.83-.31.12-.28.24-.56.37-.84Z"/>
  <path class="cls-28" d="M327.86,830.14c.37.63.75,1.26,1.12,1.88-1.27,2.12-.32,2.63,1.76,3.24,1.26.37,2.23,2.1,3.01,3.41.16.28-.93,1.76-1.7,2.06-5.62,2.21-11.28,4.35-16.98,6.34-3.07,1.07-4.1,3.16-2.45,5.7,2.02,3.11,4.41,6.13,7.18,8.59,5.56,4.92,11.6,9.29,17.23,14.13,6.38,5.47,12.49,11.25,18.8,16.81,1.93,1.71,4.1,3.14,6.17,4.7,2,1.67,4,3.34,6,5.01,1,1,2.01,1.99,3.01,2.99.33,0,.66,0,.99.01.67.66,1.34,1.33,2.01,1.99.66.34,1.33.67,1.99,1.01.33,1,.67,2,1,3-5.95-4.12-12.02-8.06-17.81-12.39-7.16-5.35-14.19-10.89-21.08-16.58-11.74-9.7-23.88-19.03-34.76-29.64-5.22-5.09-8.05-12.68-11.75-19.27-1.35-2.41-.75-4.53,2.38-5.28.61-.14,1.38-.55,1.63-1.06,2.06-4.11,5.51-5.6,10.3-4.86-1.8-4.48-3.32-8.26-4.84-12.05,7.3,6,14.55,12.06,21.93,17.96,1.36,1.09,3.22,1.56,4.86,2.31Z"/>
  <path class="cls-28" d="M400.01,919.99c3.61,1.37,7.28,2.61,10.8,4.18.96.43,1.47,1.86,2.18,2.83-8.48-3.23-17.06-6.23-25.4-9.78-3.46-1.47-6.42-4.1-9.61-6.21,1.34.33,2.68.65,4.02.98,2,1,3.99,2,5.99,3,.67.33,1.34.67,2.01,1,2.33.67,4.66,1.34,6.99,2.01,1,.66,2.01,1.32,3.01,1.98Z"/>
  <path class="cls-11" d="M382.01,911.99c-1.34-.33-2.68-.65-4.02-.98-.33,0-.66,0-.98-.02-.33-1-.67-2-1-3,2,1.33,4,2.66,6.01,4Z"/>
  <path class="cls-28" d="M413,927c.67,0,1.34,0,2,0,.67,1,1.33,2,2,3,0,0-.02.02-.02.02-1.33-1.01-2.66-2.01-3.98-3.02Z"/>
  <path class="cls-11" d="M362,897c-2.06-1.56-4.23-3-6.17-4.7-6.3-5.56-12.42-11.33-18.8-16.81-5.64-4.84-11.67-9.21-17.23-14.13-2.77-2.45-5.16-5.47-7.18-8.59-1.65-2.53-.61-4.63,2.45-5.7,5.7-1.99,11.36-4.13,16.98-6.34.76-.3,1.86-1.78,1.7-2.06-.78-1.31-1.75-3.04-3.01-3.41-2.08-.61-3.03-1.11-1.76-3.24,8.73,4.29,17.46,8.58,26.2,12.87-2.76,9.65-8.57,18.55-6.28,29.4,1.5,7.1,5.39,12.6,9.82,17.97,1.22,1.48,2.19,3.15,3.28,4.74Z"/>
  <path class="cls-11" d="M417,930c-.67-1-1.33-2-2-3,1.33,1,2.67,2,4,3-.67,0-1.34,0-2,0Z"/>
  <path class="cls-11" d="M371.01,904.99c-1-1-2.01-1.99-3.01-2.99,1,1,2.01,1.99,3.01,2.99Z"/>
  <path class="cls-11" d="M400.01,919.99c-1-.66-2.01-1.32-3.01-1.98,1,.66,2.01,1.32,3.01,1.98Z"/>
  <path class="cls-11" d="M423.01,933c-1-.67-2-1.34-3-2.01,1,.67,2,1.34,3,2.01Z"/>
  <path class="cls-11" d="M427.01,935.99c-.67-.66-1.34-1.33-2.01-1.99.67.66,1.34,1.33,2.01,1.99Z"/>
  <path class="cls-11" d="M390.01,915.99c-.67-.33-1.34-.67-2.01-1,.67.33,1.34.67,2.01,1Z"/>
  <path class="cls-11" d="M374.01,906.99c-.67-.66-1.34-1.33-2.01-1.99.67.66,1.34,1.33,2.01,1.99Z"/>
  <path class="cls-10" d="M657.02,669.05c-4.49-5.09-8.22-11.34-13.69-14.94-5.59-3.68-8.89-7.5-9.37-14-.13-1.79-.68-3.55-1.03-5.33,18.78-12.72,34.53-28.55,47.81-47.4,4.38,19.6-8.8,64.35-23.72,81.67Z"/>
  <path class="cls-10" d="M407.01,792.22c-.26,8.98-5.43,15.5-14.63,18.87-2.59.95-4.93,2.58-7.38,3.9-11.73-10.4-17.82-24.15-22.82-38.52-1.46-4.19-2.55-8.5-3.32-13.2,14.68,12.18,29.85,23.2,48.15,28.95Z"/>
  <path class="cls-16" d="M411.11,860.73c-3.52-.58-7.13-.87-10.55-1.8-7.89-2.14-15.69-4.6-23.52-6.92,4.65-.31,9.3-.62,13.95-.94,6.71,3.22,13.42,6.44,20.13,9.66Z"/>
  <path class="cls-13" d="M373.15,840.96c-.35-.39-.71-.78-1.07-1.18.35.39.71.78,1.07,1.18Z"/>
  <path class="cls-13" d="M372.21,839.89c-.41-.26-.81-.52-1.22-.78.41.26.81.52,1.22.78Z"/>
  <path class="cls-5" d="M305.78,1284.98c.13-34.25,8.15-60.64,21.92-85.73,11.75-21.42,27.09-39.77,44.87-56.17,14.07-12.98,29.97-23.59,46.83-32.65,18.06-9.71,37.16-16.84,57.07-21.64,13.51-3.26,27.21-5.1,41.18-6.01,26.92-1.74,52.88,1.8,78.07,11.1,18.04,6.66,34.41,16.16,48.91,29.08,16.23,14.46,28.04,31.81,35.65,51.93,4.69,12.4,7.73,25.26,7.85,38.77.13,13.73-.02,27.32-2.95,40.86-3.68,17.04-9.98,33.03-18.15,48.32-9.37,17.55-21.52,33.18-35.61,47.08-24.16,23.82-52.19,41.87-83.92,54.15-19.6,7.58-39.83,12.87-60.65,14.74-37.83,3.4-74.45-1.27-108.5-19.61-25.28-13.62-45.2-32.75-58.22-58.31-9.74-19.13-15.26-39.61-14.34-55.89ZM318.87,1275.13c-.13,25.33,4.94,44.79,15.14,63,17.93,31.99,45.95,51.14,80.12,61.52,20.97,6.37,42.66,8.72,64.83,6.54,16.07-1.58,31.88-4.01,47.22-8.85,43.63-13.75,80.83-37.34,110-72.99,17.29-21.13,29.67-44.65,35.86-71.38,4.05-17.5,4.65-35.2,1.6-52.68-3.4-19.5-11.6-37.13-24.36-52.71-16.83-20.55-37.98-34.6-62.78-43.16-16.6-5.73-33.82-8.34-51.51-8.98-15.64-.56-31.02.89-46.15,3.93-24.67,4.96-48.02,13.78-69.88,26.53-29.79,17.38-54.4,40.2-73.23,69.03-16.76,25.65-27.02,53.54-26.87,80.19Z"/>
  <path class="cls-6" d="M318.87,1275.13c-.15-26.65,10.12-54.53,26.87-80.19,18.83-28.83,43.44-51.65,73.23-69.03,21.87-12.76,45.21-21.57,69.88-26.53,15.13-3.04,30.51-4.49,46.15-3.93,17.68.64,34.91,3.24,51.51,8.98,24.8,8.56,45.95,22.61,62.78,43.16,12.76,15.57,20.96,33.2,24.36,52.71,3.05,17.47,2.45,35.18-1.6,52.68-6.19,26.73-18.57,50.25-35.86,71.38-29.17,35.65-66.37,59.23-110,72.99-15.34,4.84-31.15,7.27-47.22,8.85-22.17,2.18-43.86-.17-64.83-6.54-34.18-10.38-62.2-29.53-80.12-61.52-10.2-18.21-15.28-37.66-15.14-63ZM636,1318c1.01-.85,2.25-1.54,2.99-2.58,11.07-15.61,21.05-31.92,25.85-50.58,3.27-12.72,5.39-25.82,6.88-38.87.74-6.5-1.07-13.3-1.72-19.96,0-.66,0-1.33,0-1.99-.69-11.56-4.53-22.33-9.52-32.5-3.58-7.29-8.92-13.71-13.48-20.51h0c-3.98-4.77-7.43-10.14-12.02-14.22-19.07-16.96-41.3-27.77-66.21-33.45-20.46-4.66-41.17-4.79-61.75-3.03-18.12,1.55-35.85,6.1-53,12.53-26.58,9.96-50.52,24.32-71.55,43.32-14.73,13.3-27.38,28.4-37.67,45.5-10.37,17.21-17.79,35.56-20.61,55.38-1.57,11.02-.77,22.37-1.23,33.56-.49,12.08,3.54,23.25,7.66,34.13,6.78,17.87,18.33,32.84,32.88,45.09,24,20.19,52.5,30.44,83.32,32.94,28.45,2.31,56.59-.97,83.86-10.42,20.05-6.96,39.06-15.95,56.48-27.98,8.4-5.8,15.93-12.85,23.85-19.33.67-.67,1.33-1.33,2-2,2.28-1.78,4.92-3.26,6.79-5.41,5.57-6.39,10.83-13.04,16.21-19.59Z"/>
  <path class="cls-1" d="M669.99,1204.01c0,.66,0,1.33,0,1.99-.33,1.89-.88,3.78-.96,5.68-.4,10.1.1,20.31-1.16,30.3-2.96,23.58-11.82,45.02-25.5,64.49-2.51,3.57-4.28,7.67-6.39,11.53-3.27,3.1-6.74,6.02-9.75,9.35-4.58,5.07-8.85,10.42-13.25,15.65-.67.67-1.33,1.33-2,2-3.98,2.78-8.05,5.46-11.94,8.37-20.18,15.08-41.7,27.47-65.75,35.57-19.94,6.72-40.34,10.52-61.19,11.96-15.29,1.06-30.46-.94-45.45-3.96-26.73-5.39-50.31-17.31-69.44-36.67-14.89-15.07-25.03-33.13-29.56-54.3-3.8-17.72-3.77-35.36-.36-52.83,5.87-30.06,20.39-56.02,40.78-78.61,19.77-21.9,42.77-39.59,69.71-52.11,31.47-14.62,64.2-22.19,99.09-20.6,14.01.64,27.67,2.33,41.13,6.15,22.61,6.42,42.71,17.01,58.94,34.38,3,3.21,6.67,5.78,10.04,8.65h0c.73,1.79,1.17,3.77,2.24,5.33,8.97,13.09,15.41,27.21,18.1,42.96.29,1.68,1.74,3.15,2.65,4.72ZM417.04,1390.08c1.54.62,3.03,1.43,4.62,1.83,26.54,6.75,53.28,6.65,80,1.64,32.22-6.04,61.45-19.32,87.98-38.41,28.07-20.19,50.64-45.26,64.19-77.37,4.66-11.05,6.86-23.14,10.19-34.76,2.53-15.18,2.89-30.35-.7-45.4-9.72-40.85-36.09-66.81-74.26-81.62-22.56-8.76-46.05-11.82-70.35-10.21-19.73,1.31-38.93,4.85-57.43,11.44-34.56,12.31-64.7,31.5-89.3,59.12-23.99,26.94-39.85,57.37-43.2,93.83-1.81,19.72,1.31,38.43,9.45,56.28,11.31,24.77,30.02,42.52,54.13,54.53,7.8,3.88,16.42,6.12,24.66,9.1Z"/>
  <path class="cls-26" d="M647,1151c-3.36-2.87-7.04-5.44-10.04-8.65-16.23-17.37-36.33-27.96-58.94-34.38-13.46-3.82-27.12-5.51-41.13-6.15-34.89-1.59-67.62,5.98-99.09,20.6-26.94,12.51-49.94,30.21-69.71,52.11-20.39,22.59-34.91,48.55-40.78,78.61-3.41,17.47-3.43,35.11.36,52.83,4.54,21.17,14.67,39.23,29.56,54.3,19.13,19.36,42.71,31.28,69.44,36.67,14.99,3.02,30.16,5.02,45.45,3.96,20.86-1.44,41.25-5.24,61.19-11.96,24.05-8.1,45.57-20.49,65.75-35.57,3.89-2.91,7.95-5.59,11.94-8.37-7.92,6.48-15.45,13.53-23.85,19.33-17.42,12.03-36.43,21.03-56.48,27.98-27.27,9.46-55.41,12.73-83.86,10.42-30.82-2.5-59.32-12.75-83.32-32.94-14.55-12.24-26.1-27.21-32.88-45.09-4.12-10.87-8.15-22.05-7.66-34.13.46-11.19-.34-22.54,1.23-33.56,2.82-19.82,10.24-38.17,20.61-55.38,10.29-17.09,22.94-32.2,37.67-45.5,21.04-18.99,44.97-33.35,71.55-43.32,17.16-6.43,34.89-10.98,53-12.53,20.58-1.76,41.29-1.63,61.75,3.03,24.91,5.67,47.14,16.49,66.21,33.45,4.59,4.08,8.04,9.45,12.02,14.23Z"/>
  <path class="cls-26" d="M636,1318c2.11-3.86,3.87-7.96,6.39-11.53,13.68-19.47,22.54-40.91,25.5-64.49,1.25-9.99.76-20.2,1.16-30.3.08-1.9.63-3.79.96-5.68.66,6.66,2.47,13.46,1.72,19.96-1.5,13.06-3.61,26.16-6.88,38.87-4.8,18.66-14.77,34.98-25.85,50.58-.74,1.04-1.98,1.73-2.99,2.58Z"/>
  <path class="cls-26" d="M669.99,1204.01c-.91-1.57-2.37-3.05-2.65-4.72-2.7-15.75-9.13-29.86-18.1-42.96-1.07-1.56-1.51-3.54-2.24-5.33,4.56,6.81,9.9,13.22,13.48,20.51,4.99,10.17,8.83,20.94,9.52,32.5Z"/>
  <path class="cls-26" d="M613,1343c4.4-5.23,8.67-10.59,13.25-15.65,3.01-3.33,6.48-6.25,9.75-9.35-5.38,6.55-10.65,13.2-16.21,19.59-1.87,2.15-4.5,3.63-6.79,5.41Z"/>
  <path class="cls-25" d="M664.01,1243.01c-3.32,11.62-5.52,23.71-10.19,34.76-13.55,32.11-36.12,57.18-64.19,77.37-26.54,19.08-55.76,32.36-87.98,38.41-26.73,5.01-53.47,5.12-80-1.64-1.59-.41-3.08-1.21-4.62-1.83-1.56-1.04-3.13-2.08-4.81-3.2,1.31-1.03,2.41-1.89,3.64-2.86-6.94-3.33-13.64-6.18-20-9.65-18.99-10.38-33.93-25.04-44.16-44.11-13.44-25.07-14.86-51.71-8.27-78.86,8.48-34.93,28.96-62.47,55.57-85.57,16.48-14.31,35.14-25.49,55.35-34.07,22.99-9.77,46.94-15.57,71.77-16.49,13.15-.49,26.54.86,39.57,2.94,23.56,3.76,44.93,13.31,62.93,29.1,27.32,23.98,38.11,54.76,35.37,90.65-.13,1.67,0,3.37.02,5.05Z"/>
  <path class="cls-23" d="M664.01,1243.01c-.01-1.68-.15-3.38-.02-5.05,2.74-35.89-8.04-66.67-35.37-90.65-18-15.8-39.37-25.34-62.93-29.1-13.03-2.08-26.42-3.43-39.57-2.94-24.83.92-48.78,6.71-71.77,16.49-20.21,8.59-38.87,19.77-55.35,34.07-26.61,23.1-47.09,50.63-55.57,85.57-6.59,27.15-5.17,53.79,8.27,78.86,10.23,19.07,25.17,33.73,44.16,44.11,6.36,3.48,13.05,6.33,20,9.65-1.23.97-2.33,1.83-3.64,2.86,1.68,1.12,3.24,2.16,4.81,3.2-8.24-2.99-16.86-5.22-24.66-9.1-24.11-12-42.83-29.76-54.13-54.53-8.15-17.85-11.26-36.57-9.45-56.28,3.35-36.47,19.2-66.9,43.2-93.83,24.6-27.62,54.74-46.8,89.3-59.12,18.5-6.59,37.69-10.13,57.43-11.44,24.3-1.61,47.79,1.46,70.35,10.21,38.17,14.82,64.54,40.77,74.26,81.62,3.58,15.06,3.23,30.23.7,45.4Z"/>
</svg>