<svg width="175" height="31" viewBox="0 0 175 31" fill="none" xmlns="http://www.w3.org/2000/svg">
<g id="Page-1">
<g id="SW_Logo_Linear_Nano_Light">
<g id="Group-58">
<path id="Fill-1" fill-rule="evenodd" clip-rule="evenodd" d="M81.6743 17.7448C80.9405 17.7448 80.2005 17.6564 79.4539 17.4796C78.7071 17.3028 78.0323 17.0442 77.43 16.7034V14.8759C78.0848 15.2953 78.7691 15.6063 79.4834 15.8093C80.1972 16.0126 80.9602 16.1139 81.7725 16.1139C82.8465 16.1139 83.6786 15.8977 84.2681 15.4655C84.8576 15.0331 85.1523 14.4371 85.1523 13.6773C85.1523 13.2449 85.0605 12.8848 84.8773 12.5965C84.6937 12.3085 84.4514 12.0758 84.1502 11.899C83.8487 11.7221 83.5048 11.5747 83.1186 11.4568C82.732 11.3389 82.3292 11.2278 81.9101 11.1227C81.2942 10.9655 80.7145 10.7921 80.1711 10.6021C79.6273 10.4122 79.1459 10.1731 78.7269 9.88481C78.3075 9.59679 77.9801 9.2333 77.7444 8.79422C77.5085 8.35549 77.3906 7.80863 77.3906 7.15345C77.3906 6.31526 77.5969 5.59464 78.0096 4.99192C78.4222 4.38951 79.0118 3.92433 79.7781 3.59674C80.5445 3.26947 81.4581 3.10547 82.5193 3.10547C83.2267 3.10547 83.9243 3.18747 84.612 3.35115C85.2998 3.51506 85.9055 3.74105 86.4296 4.02907V5.81722C85.9579 5.4899 85.3848 5.2277 84.7102 5.03121C84.0353 4.83468 83.2856 4.73648 82.4603 4.73648C81.4646 4.73648 80.6918 4.93633 80.1416 5.3358C79.5915 5.73554 79.3163 6.2888 79.3163 6.99621C79.3163 7.38924 79.3915 7.71039 79.5423 7.95906C79.6927 8.2081 79.9089 8.4178 80.1908 8.58792C80.4724 8.75832 80.8064 8.90231 81.1929 9.02016C81.5791 9.1381 82.0083 9.25599 82.4799 9.37384C82.9644 9.49178 83.433 9.62293 83.8849 9.76687C84.3369 9.91117 84.7593 10.0847 85.1523 10.2876C85.5454 10.4908 85.8892 10.7365 86.1839 11.0245C86.4787 11.3128 86.7077 11.6601 86.8716 12.0659C87.0353 12.4722 87.1173 12.9569 87.1173 13.5201C87.1173 14.3978 86.9012 15.151 86.4688 15.7798C86.0366 16.4087 85.4109 16.8934 84.5924 17.234C83.7735 17.5744 82.8008 17.7448 81.6743 17.7448Z" fill="white"/>
<path id="Fill-3" fill-rule="evenodd" clip-rule="evenodd" d="M94.246 17.2665C93.9316 17.4369 93.5976 17.5612 93.2439 17.6398C92.8902 17.7183 92.5232 17.7577 92.1435 17.7577C91.1478 17.7577 90.3913 17.4924 89.8739 16.9618C89.3563 16.4313 89.0978 15.6619 89.0978 14.6529V8.87585H87.1328V7.42173H89.0978V4.65108L90.9449 4.21875V7.42173H93.9906V8.87585H90.9449V14.594C90.9449 15.1441 91.0757 15.5569 91.3379 15.832C91.5998 16.107 92.0059 16.2446 92.5562 16.2446C93.0539 16.2446 93.6173 16.0874 94.246 15.773V17.2665Z" fill="white"/>
<path id="Fill-5" fill-rule="evenodd" clip-rule="evenodd" d="M99.7753 16.1916C100.391 16.1916 100.918 16.0378 101.357 15.7298C101.796 15.4222 102.133 14.9831 102.369 14.4133C102.605 13.8434 102.723 13.1655 102.723 12.3795C102.723 11.6067 102.605 10.9386 102.369 10.3752C102.133 9.8121 101.793 9.37982 101.347 9.07828C100.902 8.77705 100.378 8.62631 99.7753 8.62631C99.1727 8.62631 98.6485 8.77705 98.2034 9.07828C97.7579 9.37982 97.4174 9.8121 97.1817 10.3752C96.9458 10.9386 96.8278 11.6067 96.8278 12.3795C96.8278 13.1655 96.9458 13.8434 97.1817 14.4133C97.4174 14.9831 97.7545 15.4222 98.1936 15.7298C98.6323 16.0378 99.1595 16.1916 99.7753 16.1916ZM99.7753 7.11328C100.771 7.11328 101.629 7.32938 102.35 7.7617C103.07 8.19403 103.63 8.80315 104.03 9.58916C104.429 10.3752 104.629 11.3055 104.629 12.3795C104.629 13.1919 104.514 13.9254 104.285 14.5802C104.056 15.2355 103.728 15.7955 103.303 16.2604C102.877 16.7255 102.366 17.0827 101.77 17.3313C101.174 17.5801 100.509 17.7047 99.7753 17.7047C99.0416 17.7047 98.3769 17.5801 97.7809 17.3313C97.1847 17.0827 96.6737 16.7255 96.2482 16.2604C95.8224 15.7955 95.4948 15.2355 95.2657 14.5802C95.0363 13.9254 94.9219 13.1919 94.9219 12.3795C94.9219 11.3055 95.1215 10.3752 95.5212 9.58916C95.9206 8.80315 96.4807 8.19403 97.2013 7.7617C97.9215 7.32938 98.7797 7.11328 99.7753 7.11328Z" fill="white"/>
<path id="Fill-7" fill-rule="evenodd" clip-rule="evenodd" d="M110.24 8.84397C109.179 8.84397 108.288 9.3352 107.568 10.3177V17.4507H105.721V7.3702H107.273L107.45 8.90292C108.21 7.76323 109.166 7.19336 110.319 7.19336C110.856 7.19336 111.301 7.27872 111.655 7.4488V9.21735C111.471 9.08652 111.259 8.99136 111.016 8.93237C110.774 8.87338 110.515 8.84397 110.24 8.84397Z" fill="white"/>
<path id="Fill-9" fill-rule="evenodd" clip-rule="evenodd" d="M117.32 19.6111C116.914 20.5018 116.452 21.1469 115.934 21.5467C115.417 21.9461 114.811 22.146 114.117 22.146C113.815 22.146 113.54 22.1264 113.291 22.0871C113.043 22.0477 112.8 21.9756 112.564 21.8708V20.3775C112.722 20.4561 112.908 20.518 113.125 20.5642C113.341 20.6099 113.579 20.633 113.842 20.633C114.261 20.633 114.605 20.5347 114.873 20.3382C115.142 20.1417 115.387 19.8141 115.61 19.3557C115.78 19.0149 115.944 18.6645 116.102 18.3044C116.259 17.944 116.409 17.5872 116.553 17.2335C115.846 15.5828 115.155 13.9357 114.48 12.2914C113.806 10.6476 113.167 9.00678 112.564 7.36914H114.549C114.994 8.71848 115.466 10.0612 115.964 11.3973C116.462 12.7336 116.973 14.0633 117.497 15.3863C118.034 14.0501 118.554 12.714 119.059 11.3777C119.563 10.0415 120.044 8.70528 120.503 7.36914H122.409C122.16 8.01112 121.888 8.69883 121.594 9.43234C121.299 10.1662 120.994 10.9194 120.68 11.6921C120.365 12.4652 120.048 13.2347 119.727 14.001C119.406 14.7674 119.098 15.5012 118.803 16.2018C118.509 16.9028 118.234 17.5445 117.978 18.1276C117.723 18.7102 117.503 19.2049 117.32 19.6111Z" fill="white"/>
<path id="Fill-11" fill-rule="evenodd" clip-rule="evenodd" d="M134.475 17.4502C133.938 15.6688 133.414 13.8837 132.903 12.0955C132.392 10.3074 131.888 8.51614 131.39 6.72122C130.905 8.51614 130.408 10.3074 129.897 12.0955C129.386 13.8837 128.862 15.6688 128.325 17.4502H126.281C125.574 15.1579 124.896 12.8392 124.247 10.494C123.599 8.1492 122.987 5.78478 122.41 3.40039H124.493C124.925 5.39171 125.387 7.38629 125.878 9.38383C126.37 11.3817 126.877 13.3369 127.401 15.2493C128.502 11.4765 129.523 7.72337 130.467 3.98986H132.432C132.903 5.85017 133.395 7.71048 133.905 9.57047C134.416 11.4308 134.94 13.2843 135.477 15.1315C136.001 13.2322 136.509 11.2932 137 9.31508C137.491 7.33715 137.946 5.36534 138.366 3.40039H140.39C139.813 5.78478 139.201 8.1492 138.553 10.494C137.904 12.8392 137.226 15.1579 136.519 17.4502H134.475Z" fill="white"/>
<path id="Fill-13" fill-rule="evenodd" clip-rule="evenodd" d="M144.568 16.1916C145.184 16.1916 145.711 16.0378 146.15 15.7298C146.589 15.4222 146.926 14.9831 147.162 14.4133C147.398 13.8434 147.516 13.1655 147.516 12.3795C147.516 11.6067 147.398 10.9386 147.162 10.3752C146.926 9.8121 146.585 9.37982 146.14 9.07828C145.695 8.77705 145.171 8.62631 144.568 8.62631C143.966 8.62631 143.441 8.77705 142.996 9.07828C142.551 9.37982 142.21 9.8121 141.975 10.3752C141.739 10.9386 141.621 11.6067 141.621 12.3795C141.621 13.1655 141.739 13.8434 141.975 14.4133C142.21 14.9831 142.547 15.4222 142.987 15.7298C143.425 16.0378 143.953 16.1916 144.568 16.1916ZM144.568 7.11328C145.564 7.11328 146.422 7.32938 147.143 7.7617C147.863 8.19403 148.423 8.80315 148.823 9.58916C149.222 10.3752 149.422 11.3055 149.422 12.3795C149.422 13.1919 149.307 13.9254 149.078 14.5802C148.849 15.2355 148.521 15.7955 148.096 16.2604C147.67 16.7255 147.159 17.0827 146.563 17.3313C145.967 17.5801 145.302 17.7047 144.568 17.7047C143.835 17.7047 143.17 17.5801 142.574 17.3313C141.978 17.0827 141.467 16.7255 141.041 16.2604C140.615 15.7955 140.288 15.2355 140.059 14.5802C139.829 13.9254 139.715 13.1919 139.715 12.3795C139.715 11.3055 139.914 10.3752 140.314 9.58916C140.714 8.80315 141.274 8.19403 141.994 7.7617C142.714 7.32938 143.573 7.11328 144.568 7.11328Z" fill="white"/>
<path id="Fill-15" fill-rule="evenodd" clip-rule="evenodd" d="M155.398 8.84397C154.337 8.84397 153.446 9.3352 152.726 10.3177V17.4507H150.879V7.3702H152.431L152.608 8.90292C153.368 7.76323 154.324 7.19336 155.477 7.19336C156.014 7.19336 156.459 7.27872 156.813 7.4488V9.21735C156.63 9.08652 156.417 8.99136 156.175 8.93237C155.932 8.87338 155.673 8.84397 155.398 8.84397Z" fill="white"/>
<path id="Fill-17" fill-rule="evenodd" clip-rule="evenodd" d="M160.564 12.7927H159.876V17.4499H158.029V2.81055H159.876V11.3387H160.603C161.284 10.6705 161.933 10.0058 162.549 9.3442C163.164 8.68285 163.773 8.02459 164.376 7.36936H166.538C165.791 8.16857 165.044 8.95118 164.298 9.71754C163.551 10.4839 162.797 11.2339 162.038 11.9674C162.876 12.8714 163.701 13.7752 164.514 14.6792C165.326 15.583 166.145 16.5066 166.97 17.4499H164.671C163.95 16.6116 163.259 15.806 162.598 15.0329C161.936 14.2601 161.258 13.5134 160.564 12.7927Z" fill="white"/>
<path id="Fill-19" fill-rule="evenodd" clip-rule="evenodd" d="M170.528 17.7047C169.886 17.7047 169.3 17.6359 168.769 17.4983C168.239 17.3608 167.738 17.1611 167.266 16.899V15.2483C167.711 15.576 168.206 15.8249 168.749 15.9951C169.293 16.1655 169.873 16.2506 170.488 16.2506C171.222 16.2506 171.785 16.1197 172.178 15.8575C172.571 15.5956 172.768 15.2158 172.768 14.7178C172.768 14.4166 172.709 14.1774 172.591 14.0006C172.473 13.8237 172.263 13.6699 171.962 13.5388C171.661 13.408 171.222 13.2704 170.646 13.1261C169.781 12.9167 169.1 12.6776 168.602 12.409C168.104 12.1406 167.75 11.8195 167.541 11.4461C167.331 11.0727 167.227 10.6242 167.227 10.1C167.227 9.48447 167.384 8.95385 167.698 8.50841C168.013 8.06315 168.465 7.71932 169.054 7.47672C169.644 7.23449 170.338 7.11328 171.137 7.11328C172.355 7.11328 173.377 7.36867 174.202 7.87955V9.51056C173.822 9.20933 173.377 8.97695 172.866 8.81299C172.355 8.64931 171.818 8.56736 171.255 8.56736C170.56 8.56736 170.017 8.68857 169.624 8.93084C169.231 9.17339 169.034 9.52372 169.034 9.98214C169.034 10.2705 169.093 10.5029 169.211 10.6797C169.329 10.8566 169.542 11.0073 169.85 11.1316C170.158 11.2563 170.6 11.3969 171.176 11.5542C172.014 11.7638 172.683 12.003 173.181 12.2714C173.678 12.54 174.038 12.8609 174.261 13.2343C174.484 13.6076 174.595 14.0629 174.595 14.5999C174.595 15.2419 174.428 15.7955 174.094 16.2604C173.76 16.7255 173.292 17.0826 172.689 17.3313C172.087 17.58 171.366 17.7047 170.528 17.7047Z" fill="white"/>
<path id="Fill-22" fill-rule="evenodd" clip-rule="evenodd" d="M80.5436 30.6265C80.0526 30.6265 79.6126 30.552 79.2239 30.403C78.835 30.254 78.5062 30.0392 78.2374 29.7585C77.9685 29.4779 77.7624 29.1345 77.6193 28.7282C77.4759 28.3219 77.4043 27.8644 77.4043 27.3558C77.4043 26.859 77.479 26.4102 77.628 26.0097C77.777 25.6093 77.9903 25.2659 78.268 24.9794C78.5457 24.6931 78.8805 24.4738 79.2721 24.3217C79.6638 24.1698 80.1052 24.0938 80.5962 24.0938C80.947 24.0938 81.2759 24.1332 81.5827 24.2121C81.8897 24.2911 82.1775 24.4065 82.4465 24.5586V25.602C82.201 25.4266 81.9304 25.2922 81.6353 25.1986C81.3401 25.1052 81.0288 25.0583 80.7014 25.0583C80.2512 25.0583 79.8669 25.149 79.5484 25.3301C79.2297 25.5115 78.9857 25.7745 78.8162 26.1194C78.6466 26.4644 78.5618 26.8765 78.5618 27.3558C78.5618 27.8469 78.6452 28.2634 78.8118 28.6054C78.9784 28.9474 79.2181 29.2091 79.5308 29.3902C79.8435 29.5715 80.222 29.662 80.6664 29.662C81.3444 29.662 81.9612 29.4779 82.5166 29.1096V30.1268C82.2594 30.2847 81.9583 30.4075 81.6135 30.4951C81.2684 30.5827 80.9119 30.6265 80.5436 30.6265Z" fill="white"/>
<path id="Fill-24" fill-rule="evenodd" clip-rule="evenodd" d="M85.3123 29.7518C85.6688 29.7518 85.9466 29.6189 86.1453 29.3528C86.344 29.087 86.4436 28.7171 86.4436 28.2435C86.4436 27.9337 86.3996 27.6648 86.3119 27.4368C86.2244 27.2089 86.0956 27.0334 85.9261 26.9107C85.7565 26.7879 85.552 26.7265 85.3123 26.7265C84.9556 26.7265 84.6779 26.8595 84.4793 27.1255C84.2805 27.3916 84.1812 27.7613 84.1812 28.2348C84.1812 28.5504 84.225 28.8209 84.3127 29.0458C84.4003 29.2711 84.5289 29.4448 84.6985 29.5676C84.868 29.6904 85.0726 29.7518 85.3123 29.7518ZM85.3123 25.8672C85.6513 25.8672 85.9568 25.9228 86.2287 26.0338C86.5005 26.145 86.7329 26.3042 86.9258 26.5117C87.1188 26.7192 87.2678 26.9692 87.373 27.2614C87.4782 27.5538 87.5309 27.8812 87.5309 28.2435C87.5309 28.7289 87.4402 29.1483 87.2591 29.5019C87.0777 29.8557 86.8219 30.1289 86.4917 30.3218C86.1614 30.5147 85.7682 30.6112 85.3123 30.6112C84.9732 30.6112 84.6678 30.5555 84.396 30.4445C84.1241 30.3336 83.8917 30.1742 83.6988 29.9666C83.506 29.7592 83.3568 29.5093 83.2516 29.2169C83.1464 28.9246 83.0938 28.5973 83.0938 28.2348C83.0938 27.7555 83.1843 27.3374 83.3657 26.9808C83.5468 26.6242 83.8025 26.3494 84.133 26.1565C84.4631 25.9636 84.8564 25.8672 85.3123 25.8672Z" fill="white"/>
<path id="Fill-26" fill-rule="evenodd" clip-rule="evenodd" d="M90.3089 26.7352C89.9287 26.7352 89.6073 26.9048 89.3443 27.2438V30.4972H88.2832V25.9811H89.1865L89.2566 26.5335C89.6191 26.0894 90.0661 25.8672 90.5983 25.8672C90.9081 25.8672 91.1755 25.9328 91.4006 26.0644C91.6256 26.1959 91.7966 26.3875 91.9135 26.6389C92.1065 26.3816 92.3214 26.1887 92.558 26.06C92.7948 25.9314 93.0624 25.8672 93.3604 25.8672C93.8397 25.8672 94.211 26.0193 94.4741 26.3231C94.7372 26.6271 94.8686 27.0568 94.8686 27.6121V30.4972H93.8076V27.6648C93.8076 27.3666 93.7447 27.1372 93.6192 26.9764C93.4934 26.8157 93.3108 26.7352 93.071 26.7352C92.6794 26.7352 92.352 26.9137 92.089 27.2702C92.1006 27.3754 92.1065 27.4893 92.1065 27.6121V30.4972H91.0455V27.6648C91.0455 27.3666 90.9826 27.1372 90.8569 26.9764C90.7311 26.8157 90.5485 26.7352 90.3089 26.7352Z" fill="white"/>
<path id="Fill-28" fill-rule="evenodd" clip-rule="evenodd" d="M97.8558 26.7352C97.4756 26.7352 97.1542 26.9048 96.8911 27.2438V30.4972H95.8301V25.9811H96.7334L96.8035 26.5335C97.166 26.0894 97.613 25.8672 98.1452 25.8672C98.455 25.8672 98.7223 25.9328 98.9476 26.0644C99.1725 26.1959 99.3435 26.3875 99.4604 26.6389C99.6534 26.3816 99.8683 26.1887 100.105 26.06C100.342 25.9314 100.609 25.8672 100.907 25.8672C101.387 25.8672 101.758 26.0193 102.021 26.3231C102.284 26.6271 102.416 27.0568 102.416 27.6121V30.4972H101.355V27.6648C101.355 27.3666 101.292 27.1372 101.166 26.9764C101.04 26.8157 100.858 26.7352 100.618 26.7352C100.226 26.7352 99.8989 26.9137 99.6359 27.2702C99.6474 27.3754 99.6534 27.4893 99.6534 27.6121V30.4972H98.5924V27.6648C98.5924 27.3666 98.5295 27.1372 98.4038 26.9764C98.278 26.8157 98.0954 26.7352 97.8558 26.7352Z" fill="white"/>
<path id="Fill-30" fill-rule="evenodd" clip-rule="evenodd" d="M105.255 26.6563C104.968 26.6563 104.733 26.7543 104.549 26.9501C104.365 27.1461 104.247 27.4192 104.194 27.77H106.193C106.164 27.3901 106.073 27.1094 105.921 26.9282C105.769 26.7471 105.547 26.6563 105.255 26.6563ZM107.018 30.2429C106.579 30.4884 106.053 30.6112 105.439 30.6112C104.96 30.6112 104.547 30.5176 104.203 30.3306C103.858 30.1436 103.593 29.8733 103.409 29.5194C103.225 29.1657 103.133 28.7464 103.133 28.261C103.133 27.776 103.221 27.3534 103.396 26.9939C103.571 26.6345 103.818 26.3568 104.137 26.161C104.455 25.9651 104.834 25.8672 105.272 25.8672C105.898 25.8672 106.374 26.06 106.702 26.4459C107.029 26.8317 107.193 27.3813 107.193 28.0944V28.4628H104.168C104.249 29.328 104.726 29.7606 105.597 29.7606C105.866 29.7606 106.113 29.7299 106.338 29.6685C106.563 29.6071 106.79 29.5034 107.018 29.3572V30.2429Z" fill="white"/>
<path id="Fill-32" fill-rule="evenodd" clip-rule="evenodd" d="M110.119 26.8299C109.663 26.8299 109.283 27.0316 108.979 27.435V30.4954H107.918V25.9793H108.821L108.909 26.6721C109.23 26.1578 109.645 25.9004 110.154 25.9004C110.382 25.9004 110.575 25.9385 110.733 26.0144V26.9878C110.569 26.8826 110.365 26.8299 110.119 26.8299Z" fill="white"/>
<path id="Fill-34" fill-rule="evenodd" clip-rule="evenodd" d="M113.416 30.6112C112.925 30.6112 112.506 30.5176 112.162 30.3305C111.817 30.1435 111.552 29.8732 111.368 29.5193C111.184 29.1657 111.092 28.7376 111.092 28.2348C111.092 27.7554 111.188 27.3374 111.381 26.9807C111.574 26.6242 111.847 26.3494 112.201 26.1565C112.555 25.9635 112.971 25.8672 113.451 25.8672C113.69 25.8672 113.91 25.8906 114.108 25.9373C114.307 25.9841 114.497 26.0571 114.678 26.1565V27.0861C114.515 26.9691 114.336 26.88 114.143 26.8186C113.951 26.7572 113.752 26.7265 113.547 26.7265C113.114 26.7265 112.778 26.8595 112.539 27.1255C112.299 27.3916 112.179 27.7613 112.179 28.2348C112.179 28.7142 112.298 29.0869 112.534 29.3528C112.771 29.6189 113.1 29.7518 113.521 29.7518C113.743 29.7518 113.955 29.721 114.157 29.6596C114.358 29.5983 114.553 29.5034 114.74 29.3748V30.2868C114.36 30.503 113.918 30.6112 113.416 30.6112Z" fill="white"/>
<path id="Fill-36" fill-rule="evenodd" clip-rule="evenodd" d="M115.528 30.4959H116.589V25.9798H115.528V30.4959ZM116.063 23.998C116.262 23.998 116.418 24.0521 116.532 24.1602C116.646 24.2685 116.703 24.4101 116.703 24.5856C116.703 24.7668 116.646 24.91 116.532 25.0153C116.418 25.1205 116.262 25.1731 116.063 25.1731C115.864 25.1731 115.706 25.1205 115.589 25.0153C115.472 24.91 115.414 24.7698 115.414 24.5943C115.414 24.4132 115.472 24.2685 115.589 24.1602C115.706 24.0521 115.864 23.998 116.063 23.998Z" fill="white"/>
<path id="Fill-38" fill-rule="evenodd" clip-rule="evenodd" d="M118.331 29.2082C118.331 29.6174 118.57 29.822 119.05 29.822C119.435 29.822 119.769 29.6671 120.049 29.3572V28.5855C119.95 28.568 119.845 28.5548 119.734 28.5461C119.622 28.5372 119.511 28.533 119.4 28.533C119.038 28.533 118.769 28.5855 118.594 28.6907C118.418 28.7959 118.331 28.9684 118.331 29.2082ZM120.987 30.5848C120.496 30.5848 120.207 30.4037 120.119 30.0412C119.921 30.234 119.71 30.3774 119.488 30.4709C119.266 30.5644 119.02 30.6112 118.751 30.6112C118.29 30.6112 117.93 30.4957 117.673 30.2648C117.416 30.0339 117.287 29.711 117.287 29.2958C117.287 28.8399 117.462 28.489 117.813 28.2435C118.164 27.998 118.67 27.8752 119.33 27.8752C119.435 27.8752 119.551 27.8812 119.676 27.8928C119.802 27.9045 119.926 27.919 120.049 27.9366V27.6209C120.049 27.0189 119.716 26.7176 119.05 26.7176C118.787 26.7176 118.539 26.7543 118.309 26.8273C118.078 26.9006 117.848 27.013 117.62 27.1649V26.253C118.117 25.9957 118.64 25.8672 119.19 25.8672C119.792 25.8672 120.257 26.0193 120.584 26.3231C120.911 26.6271 121.075 27.054 121.075 27.6034V29.5062C121.075 29.6174 121.094 29.6992 121.132 29.7518C121.17 29.8044 121.239 29.8307 121.338 29.8307C121.432 29.8307 121.525 29.8074 121.619 29.7606V30.4445C121.543 30.4913 121.448 30.5263 121.334 30.5498C121.22 30.573 121.104 30.5848 120.987 30.5848Z" fill="white"/>
<path id="Fill-39" fill-rule="evenodd" clip-rule="evenodd" d="M123.301 30.5767C122.933 30.5767 122.658 30.4788 122.477 30.2829C122.296 30.0871 122.205 29.7874 122.205 29.384V23.9648H123.266V29.3051C123.266 29.4573 123.295 29.5682 123.354 29.6384C123.412 29.7085 123.512 29.7436 123.652 29.7436C123.786 29.7436 123.924 29.7085 124.064 29.6384V30.4363C123.965 30.4832 123.851 30.5182 123.722 30.5416C123.593 30.5649 123.453 30.5767 123.301 30.5767Z" fill="white"/>
<path id="Fill-40" fill-rule="evenodd" clip-rule="evenodd" d="M128.381 25.1123V27.3659H129.337C129.811 27.3659 130.166 27.2753 130.402 27.0941C130.639 26.913 130.758 26.6293 130.758 26.2435C130.758 25.8576 130.639 25.5727 130.402 25.3885C130.166 25.2044 129.813 25.1123 129.346 25.1123H128.381ZM127.285 30.4964V24.2266H129.416C130.211 24.2266 130.82 24.4006 131.244 24.7483C131.668 25.0962 131.88 25.5945 131.88 26.2435C131.88 26.6702 131.784 27.0342 131.591 27.3352C131.398 27.6364 131.117 27.8644 130.749 28.0192C130.381 28.1742 129.933 28.2516 129.407 28.2516H128.381V30.4964H127.285Z" fill="white"/>
<path id="Fill-41" fill-rule="evenodd" clip-rule="evenodd" d="M134.805 26.8299C134.349 26.8299 133.969 27.0316 133.665 27.435V30.4954H132.604V25.9793H133.507L133.594 26.6721C133.916 26.1578 134.331 25.9004 134.84 25.9004C135.068 25.9004 135.261 25.9385 135.418 26.0144V26.9878C135.255 26.8826 135.05 26.8299 134.805 26.8299Z" fill="white"/>
<path id="Fill-42" fill-rule="evenodd" clip-rule="evenodd" d="M137.996 29.7518C138.352 29.7518 138.63 29.6189 138.829 29.3528C139.028 29.087 139.127 28.7171 139.127 28.2435C139.127 27.9337 139.083 27.6648 138.996 27.4368C138.908 27.2089 138.779 27.0334 138.61 26.9107C138.44 26.7879 138.236 26.7265 137.996 26.7265C137.639 26.7265 137.362 26.8595 137.163 27.1255C136.964 27.3916 136.865 27.7613 136.865 28.2348C136.865 28.5504 136.909 28.8209 136.996 29.0458C137.084 29.2711 137.212 29.4448 137.382 29.5676C137.552 29.6904 137.756 29.7518 137.996 29.7518ZM137.996 25.8672C138.335 25.8672 138.64 25.9228 138.912 26.0338C139.184 26.145 139.417 26.3042 139.609 26.5117C139.802 26.7192 139.951 26.9692 140.057 27.2614C140.162 27.5538 140.214 27.8812 140.214 28.2435C140.214 28.7289 140.124 29.1483 139.943 29.5019C139.761 29.8557 139.506 30.1289 139.175 30.3218C138.845 30.5147 138.452 30.6112 137.996 30.6112C137.657 30.6112 137.351 30.5555 137.08 30.4445C136.808 30.3336 136.575 30.1742 136.382 29.9666C136.19 29.7592 136.04 29.5093 135.935 29.2169C135.83 28.9246 135.777 28.5973 135.777 28.2348C135.777 27.7555 135.868 27.3374 136.049 26.9808C136.23 26.6242 136.486 26.3494 136.817 26.1565C137.147 25.9636 137.54 25.8672 137.996 25.8672Z" fill="white"/>
<path id="Fill-43" fill-rule="evenodd" clip-rule="evenodd" d="M141.951 28.2792C141.951 28.7527 142.043 29.1167 142.227 29.3709C142.411 29.6253 142.681 29.7523 143.038 29.7523C143.418 29.7523 143.748 29.5917 144.029 29.2701V26.9375C143.894 26.8616 143.764 26.8076 143.639 26.7753C143.513 26.7433 143.377 26.7271 143.231 26.7271C142.822 26.7271 142.506 26.863 142.284 27.1348C142.062 27.4067 141.951 27.7882 141.951 28.2792ZM144.187 30.4978L144.125 29.9804C143.944 30.1968 143.739 30.3561 143.512 30.4583C143.284 30.5605 143.035 30.6118 142.766 30.6118C142.374 30.6118 142.037 30.5182 141.753 30.3311C141.47 30.1441 141.25 29.8795 141.096 29.5375C140.941 29.1956 140.863 28.7908 140.863 28.323C140.863 27.8204 140.954 27.3862 141.135 27.0209C141.316 26.6555 141.574 26.372 141.907 26.1702C142.24 25.9686 142.632 25.8678 143.082 25.8678C143.421 25.8678 143.737 25.9438 144.029 26.0957V23.9648H145.09V30.4978H144.187Z" fill="white"/>
<path id="Fill-44" fill-rule="evenodd" clip-rule="evenodd" d="M148.935 30.4966L148.865 29.9441C148.491 30.3884 148.029 30.6106 147.48 30.6106C146.983 30.6106 146.597 30.4615 146.322 30.1634C146.047 29.8652 145.91 29.4442 145.91 28.9006V25.9805H146.971V28.848C146.971 29.1403 147.04 29.3626 147.177 29.5144C147.314 29.6666 147.512 29.7424 147.769 29.7424C147.968 29.7424 148.152 29.6986 148.322 29.611C148.491 29.5232 148.643 29.3948 148.778 29.2251V25.9805H149.839V30.4966H148.935Z" fill="white"/>
<path id="Fill-45" fill-rule="evenodd" clip-rule="evenodd" d="M152.914 30.6112C152.423 30.6112 152.005 30.5176 151.66 30.3305C151.315 30.1435 151.05 29.8732 150.866 29.5193C150.682 29.1657 150.59 28.7376 150.59 28.2348C150.59 27.7554 150.686 27.3374 150.879 26.9807C151.072 26.6242 151.345 26.3494 151.699 26.1565C152.053 25.9635 152.469 25.8672 152.949 25.8672C153.188 25.8672 153.408 25.8906 153.606 25.9373C153.805 25.9841 153.995 26.0571 154.176 26.1565V27.0861C154.013 26.9691 153.834 26.88 153.641 26.8186C153.449 26.7572 153.25 26.7265 153.045 26.7265C152.612 26.7265 152.276 26.8595 152.037 27.1255C151.797 27.3916 151.677 27.7613 151.677 28.2348C151.677 28.7142 151.796 29.0869 152.032 29.3528C152.269 29.6189 152.598 29.7518 153.019 29.7518C153.241 29.7518 153.453 29.721 153.655 29.6596C153.856 29.5983 154.051 29.5034 154.238 29.3748V30.2868C153.858 30.503 153.416 30.6112 152.914 30.6112Z" fill="white"/>
<path id="Fill-46" fill-rule="evenodd" clip-rule="evenodd" d="M158.045 30.3997C157.747 30.54 157.417 30.6102 157.054 30.6102C156.581 30.6102 156.221 30.4861 155.976 30.2375C155.73 29.9891 155.607 29.628 155.607 29.1545V26.8045H154.783V25.9801H155.607V24.8139L156.668 24.5684V25.9801H157.94V26.8045H156.668V29.0756C156.668 29.5258 156.891 29.7508 157.335 29.7508C157.557 29.7508 157.794 29.6894 158.045 29.5667V30.3997Z" fill="white"/>
<path id="Fill-47" fill-rule="evenodd" clip-rule="evenodd" d="M158.878 30.4959H159.939V25.9798H158.878V30.4959ZM159.413 23.998C159.611 23.998 159.768 24.0521 159.882 24.1602C159.996 24.2685 160.053 24.4101 160.053 24.5856C160.053 24.7668 159.996 24.91 159.882 25.0153C159.768 25.1205 159.611 25.1731 159.413 25.1731C159.214 25.1731 159.056 25.1205 158.939 25.0153C158.822 24.91 158.764 24.7698 158.764 24.5943C158.764 24.4132 158.822 24.2685 158.939 24.1602C159.056 24.0521 159.214 23.998 159.413 23.998Z" fill="white"/>
<path id="Fill-48" fill-rule="evenodd" clip-rule="evenodd" d="M163.051 29.7518C163.407 29.7518 163.685 29.6189 163.884 29.3528C164.082 29.087 164.182 28.7171 164.182 28.2435C164.182 27.9337 164.138 27.6648 164.05 27.4368C163.963 27.2089 163.834 27.0334 163.664 26.9107C163.495 26.7879 163.29 26.7265 163.051 26.7265C162.694 26.7265 162.416 26.8595 162.218 27.1255C162.019 27.3916 161.919 27.7613 161.919 28.2348C161.919 28.5504 161.963 28.8209 162.051 29.0458C162.139 29.2711 162.267 29.4448 162.437 29.5676C162.606 29.6904 162.811 29.7518 163.051 29.7518ZM163.051 25.8672C163.39 25.8672 163.695 25.9228 163.967 26.0338C164.239 26.145 164.471 26.3042 164.664 26.5117C164.857 26.7192 165.006 26.9692 165.111 27.2614C165.216 27.5538 165.269 27.8812 165.269 28.2435C165.269 28.7289 165.179 29.1483 164.997 29.5019C164.816 29.8557 164.56 30.1289 164.23 30.3218C163.9 30.5147 163.507 30.6112 163.051 30.6112C162.711 30.6112 162.406 30.5555 162.134 30.4445C161.862 30.3336 161.63 30.1742 161.437 29.9666C161.244 29.7592 161.095 29.5093 160.99 29.2169C160.885 28.9246 160.832 28.5973 160.832 28.2348C160.832 27.7555 160.923 27.3374 161.104 26.9808C161.285 26.6242 161.541 26.3494 161.871 26.1565C162.201 25.9636 162.595 25.8672 163.051 25.8672Z" fill="white"/>
<path id="Fill-49" fill-rule="evenodd" clip-rule="evenodd" d="M168.124 26.7352C167.709 26.7352 167.361 26.9078 167.081 27.2527V30.4972H166.02V25.9811H166.923L166.993 26.551C167.379 26.0952 167.852 25.8672 168.414 25.8672C168.741 25.8672 169.023 25.9359 169.26 26.0732C169.496 26.2106 169.678 26.4094 169.803 26.6696C169.929 26.9297 169.992 27.2438 169.992 27.6121V30.4972H168.931V27.6648C168.931 27.3609 168.861 27.1299 168.72 26.972C168.58 26.8142 168.381 26.7352 168.124 26.7352Z" fill="white"/>
<path id="Fill-50" fill-rule="evenodd" clip-rule="evenodd" d="M172.341 30.6112C171.786 30.6112 171.289 30.4972 170.85 30.2692V29.3659C171.055 29.5062 171.28 29.6144 171.526 29.6904C171.771 29.7664 172.023 29.8044 172.28 29.8044C172.578 29.8044 172.804 29.7577 172.959 29.6641C173.114 29.5706 173.192 29.4303 173.192 29.2432C173.192 29.1322 173.167 29.0429 173.117 28.9758C173.068 28.9085 172.984 28.8501 172.867 28.8003C172.75 28.7507 172.587 28.6996 172.376 28.6469C171.99 28.5476 171.685 28.4379 171.46 28.3181C171.235 28.1983 171.073 28.0521 170.973 27.8796C170.874 27.7072 170.824 27.4981 170.824 27.2526C170.824 26.9662 170.897 26.7192 171.043 26.5117C171.189 26.3042 171.4 26.1449 171.675 26.0338C171.95 25.9228 172.274 25.8672 172.648 25.8672C173.198 25.8672 173.668 25.9782 174.06 26.2004V27.0948C173.89 26.9604 173.69 26.8566 173.459 26.7834C173.228 26.7105 172.993 26.6738 172.753 26.6738C172.479 26.6738 172.261 26.7176 172.1 26.8054C171.939 26.8931 171.859 27.0246 171.859 27.2C171.859 27.3052 171.882 27.3916 171.929 27.4586C171.976 27.526 172.059 27.5845 172.179 27.6341C172.299 27.6838 172.47 27.7348 172.692 27.7875C173.066 27.8811 173.366 27.9878 173.591 28.1076C173.816 28.2274 173.98 28.3751 174.082 28.5504C174.184 28.7258 174.235 28.9362 174.235 29.1818C174.235 29.4859 174.159 29.743 174.007 29.9534C173.855 30.164 173.637 30.3262 173.354 30.4402C173.07 30.5541 172.733 30.6112 172.341 30.6112Z" fill="white"/>
<path id="Fill-51" fill-rule="evenodd" clip-rule="evenodd" d="M65.4992 13.2522L65.1602 13.4578C63.5266 14.454 61.7513 14.9895 60.1382 14.9895C56.6847 14.9748 54.4101 12.9303 54.4011 9.94937C54.4044 7.03727 56.78 4.87982 60.05 4.87193C61.7148 4.87306 63.2241 5.30566 65.0165 6.28729L65.3475 6.46799V3.80788L65.2067 3.75247C63.1847 2.95503 61.6176 2.59808 60.0714 2.59917C57.6815 2.59808 55.6065 3.38881 54.1289 4.72953C52.6514 6.06925 51.7737 7.96128 51.7746 10.1323C51.7746 11.6471 52.4006 13.4205 53.7368 14.8291C55.0721 16.2377 57.1243 17.2633 59.9428 17.2633H59.9528C62.2891 17.2633 63.9098 16.7415 65.3736 16.0208L65.4992 15.9587V13.2522ZM48.5996 19.8467H69.6876V0H48.5996V19.8467Z" fill="white"/>
<path id="Fill-52" fill-rule="evenodd" clip-rule="evenodd" d="M39.1594 15.8118C38.3102 16.5675 36.9877 17.0758 35.1057 17.0758H35.1034H29.8305V2.78213H34.3253C35.9526 2.78105 37.1466 3.24301 37.9318 3.95128C38.717 4.66178 39.0826 5.60725 39.0807 6.53915C39.0826 7.2948 38.891 7.94431 38.4885 8.47519C38.1884 8.87058 37.7772 9.1925 37.2599 9.45792C39.1813 9.98432 40.3818 11.3545 40.3762 13.1584C40.3771 14.0689 40.0115 15.0584 39.1594 15.8118ZM24.2969 19.8466H45.3868V0H24.2969V19.8466Z" fill="white"/>
<path id="Fill-53" fill-rule="evenodd" clip-rule="evenodd" d="M37.0484 11.5051C36.5671 11.1617 35.7979 10.9414 34.7135 10.9414H32.3887V14.843H34.8221C36.0303 14.843 36.7592 14.5617 37.1817 14.1901C37.6042 13.8185 37.7497 13.3452 37.7511 12.8731C37.7473 12.3037 37.5297 11.8508 37.0484 11.5051Z" fill="white"/>
<path id="Fill-54" fill-rule="evenodd" clip-rule="evenodd" d="M35.7795 8.20327C36.2328 7.87563 36.4519 7.41594 36.4552 6.72237C36.4529 6.24794 36.3163 5.84021 35.9753 5.53744C35.6316 5.23245 35.0488 5.01562 34.1104 5.01562H32.3887V8.71269H33.5703C34.5912 8.71269 35.3243 8.53086 35.7795 8.20327Z" fill="white"/>
<path id="Fill-55" fill-rule="evenodd" clip-rule="evenodd" d="M14.8606 15.8118C14.009 16.5675 12.6885 17.0758 10.8055 17.0758H10.8031H5.52888V2.78213H10.026C11.6538 2.78105 12.8478 3.24301 13.6316 3.95128C14.4163 4.66178 14.7825 5.60725 14.7815 6.53915C14.7825 7.2948 14.5918 7.94431 14.1883 8.47519C13.8881 8.87058 13.478 9.1925 12.9592 9.45792C14.8796 9.98432 16.0826 11.3545 16.076 13.1584C16.0783 14.0689 15.7108 15.0584 14.8606 15.8118ZM0 19.8466H21.0866V0H0V19.8466Z" fill="white"/>
<path id="Fill-56" fill-rule="evenodd" clip-rule="evenodd" d="M11.4811 8.20327C11.9316 7.87563 12.1521 7.41594 12.1554 6.72237C12.1554 6.24794 12.0174 5.84021 11.6751 5.53744C11.3318 5.23245 10.75 5.01562 9.81011 5.01562H8.08984V8.71269H9.27056C10.2914 8.71269 11.0245 8.53086 11.4811 8.20327Z" fill="white"/>
<path id="Fill-57" fill-rule="evenodd" clip-rule="evenodd" d="M12.7511 11.5051C12.2674 11.1617 11.4997 10.9414 10.4162 10.9414H8.0918V14.843H10.5234C11.7335 14.843 12.4608 14.5617 12.8843 14.1901C13.3044 13.8185 13.4505 13.3452 13.4538 12.873C13.4481 12.3037 13.2324 11.8507 12.7511 11.5051Z" fill="white"/>
</g>
</g>
</g>
</svg>
